<?xml version="1.0" standalone="no"?>
<!DOCTYPE svg PUBLIC "-//W3C//DTD SVG 20010904//EN"
 "http://www.w3.org/TR/2001/REC-SVG-20010904/DTD/svg10.dtd">
<svg version="1.0" xmlns="http://www.w3.org/2000/svg"
 width="1920.000000pt" height="1038.000000pt" viewBox="0 0 1920.000000 1038.000000"
 preserveAspectRatio="xMidYMid meet">

<g transform="translate(0.000000,1038.000000) scale(0.100000,-0.100000)"
fill="#000000" stroke="none">
<path d="M0 6297 l0 -4084 58 8 c31 5 93 8 138 7 107 -1 128 6 119 40 -26 104
-28 134 -16 185 18 75 42 138 63 167 15 20 16 31 8 59 -13 47 -2 135 26 198
20 46 92 130 149 173 36 28 188 98 270 125 111 37 198 54 253 51 30 -2 60 3
82 14 19 9 47 20 62 24 28 6 78 82 78 118 0 25 81 179 124 235 49 64 97 114
148 156 34 28 48 47 53 75 10 54 53 180 78 230 80 155 103 194 151 255 67 83
137 142 196 164 25 9 61 31 80 48 158 145 365 238 625 281 90 15 292 18 347 5
32 -7 42 -5 70 16 100 75 220 106 391 99 112 -4 185 -21 237 -54 14 -9 53 -26
87 -38 88 -31 172 -85 173 -111 1 -11 39 -53 79 -86 70 -58 109 -147 113 -260
2 -57 17 -85 38 -72 18 11 96 -36 134 -81 38 -45 86 -129 86 -149 0 -7 14 -23
32 -36 78 -59 118 -121 118 -184 0 -32 8 -44 66 -98 57 -54 144 -164 133 -170
-37 -21 -44 -27 -41 -43 2 -11 9 -22 15 -26 8 -5 7 -8 -3 -12 -8 -2 -35 -11
-60 -20 -99 -34 -119 -36 -131 -15 -5 11 -15 16 -22 12 -8 -5 -8 -8 1 -11 27
-9 11 -41 -34 -67 -79 -46 -154 -114 -154 -140 0 -36 71 -38 173 -4 50 17 76
19 166 15 168 -9 193 -17 170 -55 -12 -18 -10 -24 21 -56 19 -19 40 -35 47
-35 7 0 30 -9 52 -21 30 -15 47 -35 70 -79 42 -80 41 -107 -3 -125 -19 -8 -37
-19 -41 -25 -3 -5 -13 -10 -20 -10 -8 0 -38 -11 -67 -24 -29 -13 -73 -29 -98
-36 -25 -7 -54 -16 -65 -20 -78 -31 -158 -43 -300 -43 l-150 -1 -106 41 c-58
23 -128 55 -155 71 -27 16 -81 44 -119 62 -76 36 -125 67 -125 79 0 4 34 18
74 30 41 11 78 26 81 31 9 15 -57 40 -104 40 -22 0 -43 5 -46 10 -3 6 -2 10 4
10 9 0 125 112 175 170 28 31 64 53 76 45 6 -4 10 -2 10 4 0 5 -5 11 -12 13
-7 3 -5 13 7 31 27 42 14 60 -39 52 -26 -4 -46 -3 -50 3 -4 8 -16 8 -36 0 -17
-5 -28 -14 -25 -19 3 -4 12 -6 20 -2 8 3 15 1 15 -5 0 -10 -99 -66 -105 -60
-6 6 34 88 43 88 4 0 7 16 6 36 -2 20 6 59 16 87 19 50 26 97 15 97 -17 0 -96
-48 -130 -79 -36 -33 -46 -36 -95 -36 l-55 0 3 77 c2 47 -1 79 -8 83 -6 3 -34
-15 -62 -40 -57 -51 -66 -48 -67 21 -2 55 9 57 201 44 95 -6 180 -13 188 -15
8 -2 39 -7 69 -10 l53 -7 58 59 c76 79 117 186 94 248 -10 25 -54 43 -120 49
-163 16 -192 16 -228 1 -41 -17 -86 -20 -86 -4 0 5 -4 8 -9 5 -5 -3 -17 6 -27
19 -10 14 -24 25 -31 25 -16 0 -50 34 -102 103 -117 154 -281 261 -424 278
-92 10 -170 2 -227 -23 -26 -11 -72 -21 -108 -22 -57 -3 -65 -1 -79 21 -13 19
-14 29 -5 48 7 14 16 25 22 25 5 0 10 20 10 45 0 35 -4 45 -16 45 -9 0 -14 6
-11 13 10 27 -7 39 -39 27 -47 -18 -92 -57 -120 -105 -21 -36 -31 -45 -54 -45
-15 0 -39 -9 -54 -21 -21 -17 -26 -29 -26 -68 0 -63 -17 -83 -97 -117 -93 -39
-121 -61 -150 -117 -15 -32 -29 -47 -38 -43 -7 2 -55 35 -105 71 -105 76 -136
91 -156 74 -32 -26 -15 -45 144 -164 50 -37 94 -76 97 -86 8 -24 -25 -87 -65
-124 -66 -61 -82 -135 -55 -248 22 -93 13 -119 -55 -161 -32 -20 -61 -36 -65
-36 -20 0 -155 -126 -179 -168 -5 -8 -12 -30 -16 -48 -12 -52 15 -69 104 -68
60 0 83 6 149 37 42 20 87 37 98 37 20 0 21 -4 15 -43 -4 -23 -10 -60 -13 -81
-3 -22 -18 -68 -34 -104 -49 -109 -69 -236 -49 -308 10 -34 10 -48 1 -57 -31
-31 13 -87 70 -87 23 0 41 -8 56 -24 37 -39 129 -77 194 -80 33 -1 61 -4 63
-7 2 -2 18 -31 36 -64 18 -33 38 -64 46 -68 18 -10 18 -105 0 -172 -8 -30 -10
-59 -5 -73 12 -31 -5 -374 -19 -397 -3 -5 -7 -18 -7 -28 -1 -10 -6 -22 -12
-28 -6 -6 -7 -26 -2 -55 5 -24 6 -50 4 -56 -18 -53 -23 -157 -13 -272 5 -58
-22 -72 -157 -86 -117 -12 -135 -19 -135 -55 0 -46 116 -75 226 -57 48 8 93 6
210 -9 82 -10 185 -19 229 -19 44 0 110 -5 148 -9 74 -10 107 -5 107 14 0 9
-24 16 -76 20 -81 8 -116 27 -143 79 -16 28 -73 44 -170 45 -29 1 -58 4 -62 7
-14 9 -10 77 7 99 12 17 32 75 38 112 1 7 5 15 8 19 4 3 4 27 1 54 -4 33 0 57
11 82 9 19 17 50 18 69 1 19 9 110 19 203 15 141 22 175 42 205 21 33 38 80
51 141 15 71 67 111 167 130 29 6 58 15 65 21 9 8 20 7 37 -3 115 -63 103 -47
121 -150 19 -109 64 -226 88 -234 9 -3 31 -22 48 -43 53 -68 101 -57 148 34
52 101 85 202 90 271 4 70 4 73 -23 90 -21 14 -30 15 -44 6 -55 -40 -73 -17
-69 92 l3 79 93 24 c116 29 157 50 208 105 73 79 114 169 114 251 0 30 4 37
20 37 11 0 28 -4 38 -9 60 -31 314 -121 407 -145 55 -14 240 -33 275 -29 86
11 171 27 253 47 l97 24 -30 -37 c-36 -45 -57 -66 -93 -94 -25 -20 -27 -25
-18 -50 6 -16 11 -52 11 -80 0 -29 4 -68 10 -87 13 -44 79 -112 155 -157 33
-20 67 -42 75 -48 8 -7 39 -18 67 -26 38 -9 55 -19 59 -33 4 -11 21 -41 39
-67 17 -26 38 -68 45 -95 7 -27 21 -60 30 -74 32 -47 31 -58 -4 -91 -19 -17
-49 -39 -68 -48 -44 -24 -149 -118 -176 -158 -25 -38 -27 -56 -8 -72 16 -13
58 2 87 31 19 17 115 65 192 93 70 26 79 6 25 -54 -54 -62 -80 -124 -55 -134
6 -2 42 10 80 28 54 26 81 33 139 34 49 1 74 -2 80 -11 10 -17 10 -71 0 -64
-5 3 -5 -23 0 -57 5 -34 6 -85 3 -112 -4 -34 -1 -65 10 -94 28 -82 9 -98 -132
-110 -92 -8 -97 -9 -129 -44 -18 -19 -39 -37 -46 -39 -6 -2 -8 -10 -4 -16 6
-9 44 -12 139 -10 124 2 300 -9 482 -31 88 -10 135 -5 135 14 0 7 -16 16 -35
19 -19 4 -42 17 -52 30 -20 25 -62 41 -133 51 -25 3 -53 12 -63 19 -25 19 -36
66 -24 96 5 14 13 61 18 105 10 107 30 259 34 263 2 2 9 5 17 6 7 2 30 6 52
11 46 9 55 -1 56 -60 1 -22 7 -65 14 -95 l12 -55 105 -5 c57 -3 108 -2 114 2
5 5 16 8 25 8 9 0 31 20 50 45 43 58 57 58 93 3 23 -36 39 -35 81 4 48 46 122
98 140 98 8 0 17 4 20 9 7 11 88 51 103 51 6 0 13 -4 15 -9 2 -5 15 -24 30
-43 64 -78 108 -136 108 -143 0 -5 16 -23 35 -41 29 -29 41 -34 82 -34 59 0
93 9 93 24 0 6 25 38 54 71 l54 60 37 -14 c30 -11 42 -11 61 -1 27 15 54 0 54
-31 0 -35 38 -33 82 5 23 20 50 36 60 36 24 0 70 24 87 44 17 20 51 21 51 2 0
-8 17 -35 39 -59 27 -32 42 -42 52 -36 25 16 39 9 45 -21 5 -24 34 -64 38 -52
1 2 17 -3 35 -11 41 -17 61 -12 61 14 0 21 54 79 99 105 17 10 31 22 31 27 0
4 15 15 33 23 17 8 44 24 59 36 l28 22 26 -24 c37 -35 114 -156 114 -179 0
-11 4 -31 10 -45 11 -31 52 -35 75 -8 9 9 43 51 78 92 34 41 67 79 74 83 7 4
13 15 13 23 0 10 8 14 22 12 17 -2 27 -19 48 -79 35 -101 60 -141 92 -150 37
-10 108 8 131 32 10 10 27 19 39 19 17 0 20 -5 16 -30 -6 -38 2 -43 59 -42 35
1 50 7 69 27 29 31 31 52 5 60 -33 10 -41 28 -30 68 5 20 14 39 19 42 19 12
85 -14 95 -37 8 -18 17 -22 44 -20 19 1 40 7 46 12 6 5 28 11 49 14 34 4 42 0
90 -47 136 -135 205 -168 270 -128 41 26 42 26 49 2 3 -13 16 -20 40 -23 56
-6 74 5 82 50 l6 40 27 -27 c64 -66 155 -63 200 5 25 38 34 41 52 19 16 -20
74 -19 105 1 13 9 28 13 33 10 6 -3 10 0 9 7 -2 70 33 62 58 -13 1 -3 7 -18
13 -33 7 -16 12 -32 12 -36 0 -5 7 -14 15 -21 20 -17 45 3 45 36 0 14 7 50 15
82 8 31 17 69 20 85 5 23 10 27 38 26 17 -1 47 -7 65 -13 30 -10 35 -8 63 22
16 18 40 32 52 32 33 0 169 -72 212 -112 81 -74 110 -83 126 -41 17 46 -14
132 -87 232 -39 55 -41 66 -15 80 13 7 21 27 26 66 8 67 61 176 110 228 32 34
135 107 150 107 3 0 30 11 58 25 29 13 72 27 97 31 25 4 50 11 56 15 6 5 49 7
95 5 91 -5 170 -28 252 -75 29 -16 63 -29 77 -29 63 0 174 -57 231 -119 35
-36 139 -194 139 -209 0 -27 25 -33 90 -21 63 12 64 13 112 79 69 95 175 171
274 197 25 7 48 21 58 36 9 14 26 25 37 25 11 0 30 6 42 14 96 62 386 101 464
64 13 -6 25 -9 28 -7 2 3 8 41 13 85 9 79 28 131 62 169 10 11 23 44 29 72 14
67 43 129 81 172 29 33 112 91 130 91 5 0 16 10 24 21 28 41 199 53 283 21
150 -58 270 -181 343 -352 24 -56 29 -60 75 -60 69 0 145 -20 203 -52 58 -33
57 -33 66 45 4 32 15 60 32 80 35 42 113 97 137 97 10 0 33 16 50 36 47 54
140 111 202 124 77 16 101 50 129 185 46 217 72 309 113 405 32 75 48 128 55
185 5 44 13 85 17 90 4 6 18 35 30 66 16 41 40 73 87 118 35 34 64 68 64 76 0
9 25 31 56 51 95 61 238 74 354 33 103 -36 203 -150 308 -352 47 -91 68 -113
112 -119 24 -3 25 0 31 67 10 100 68 239 131 310 17 20 60 57 94 81 54 38 64
51 69 82 19 123 93 314 142 367 10 11 35 41 56 66 53 66 113 94 201 94 59 -1
82 -6 136 -33 36 -18 81 -44 100 -58 28 -20 42 -24 70 -20 19 3 74 6 122 6 78
0 87 2 93 20 20 64 157 192 226 210 29 8 39 16 39 31 0 25 58 117 97 153 56
54 190 134 274 165 65 23 107 32 165 34 l77 3 36 89 c43 107 69 151 112 189
25 22 30 33 25 54 -3 15 -9 50 -12 78 -11 90 48 185 150 243 47 26 55 35 71
83 9 29 32 80 50 113 19 33 43 92 55 130 52 168 69 202 142 280 39 41 99 94
134 117 l64 42 0 1804 0 1805 -31 -7 c-17 -3 -36 -6 -41 -6 -5 0 -6 -5 -2 -12
4 -7 3 -8 -4 -4 -7 4 -12 18 -12 32 0 14 -7 27 -15 30 -8 4 -15 16 -15 28 0
16 -2 18 -9 7 -5 -7 -14 -10 -20 -7 -6 4 -11 2 -11 -4 0 -7 -6 -8 -19 0 -19
10 -51 4 -51 -9 0 -3 -11 -6 -25 -6 -16 0 -23 5 -20 13 2 6 -2 12 -10 12 -20
0 -19 19 0 27 9 3 22 -2 30 -13 13 -17 17 -17 28 -4 7 8 24 22 39 30 36 20 39
34 8 37 -14 1 -19 0 -12 -3 16 -8 15 -24 -2 -24 -20 0 -29 30 -11 36 8 4 25 4
38 0 36 -9 65 4 71 30 6 22 8 23 21 10 19 -19 19 -40 0 -33 -20 8 -26 -5 -15
-39 4 -16 9 -21 9 -11 1 9 6 18 11 18 6 1 16 2 22 3 7 0 14 10 16 21 3 11 10
24 18 28 10 6 14 32 14 102 l0 95 -9600 0 -9600 0 0 -4083z m19117 3931 c-3
-8 -6 -5 -6 6 -1 11 2 17 5 13 3 -3 4 -12 1 -19z m-1985 -51 c20 12 68 9 68
-5 0 -7 4 -11 9 -7 5 3 12 1 16 -5 3 -5 16 -10 28 -11 12 0 16 -3 9 -6 -8 -3
9 -15 37 -29 28 -13 58 -21 66 -18 9 4 15 0 15 -9 0 -10 9 -14 30 -12 17 1 33
5 36 8 8 7 37 -3 47 -17 5 -8 10 -6 16 3 8 12 12 12 25 2 13 -11 16 -11 16 1
0 13 8 14 48 6 26 -6 54 -10 62 -11 8 0 20 -7 26 -16 9 -12 15 -13 26 -3 11 9
19 8 36 -4 13 -9 22 -11 22 -4 0 12 47 3 67 -12 7 -5 30 -8 51 -7 27 2 45 -2
57 -14 12 -13 26 -16 51 -11 22 4 34 2 34 -5 0 -6 9 -11 20 -11 12 0 20 -7 21
-17 1 -17 2 -17 6 0 6 21 23 23 23 1 0 -12 5 -13 23 -8 12 5 44 8 71 9 39 0
50 4 57 20 4 11 8 14 8 8 1 -7 13 -13 29 -12 l27 0 -25 10 c-23 9 -23 11 -7
20 19 11 57 3 57 -12 0 -5 -5 -9 -12 -9 -6 0 -8 -3 -5 -7 4 -3 16 2 27 12 16
14 23 16 32 7 7 -7 17 -12 22 -12 6 0 5 5 -2 12 -7 7 -12 15 -12 20 0 11 34
-3 43 -19 4 -7 17 -13 27 -13 12 0 20 -7 20 -17 0 -10 4 -24 9 -32 8 -12 12
-12 25 -2 21 17 22 -4 2 -25 -15 -15 -50 -9 -40 7 3 5 -9 9 -25 9 -37 0 -41
-15 -6 -24 27 -7 34 -26 10 -26 -8 0 -15 5 -15 11 0 7 -12 9 -32 6 -18 -3 -27
-3 -20 0 6 2 12 14 12 26 -1 21 -2 20 -26 -7 -31 -35 -23 -45 44 -53 39 -4 54
-2 67 11 23 23 33 20 37 -11 2 -16 7 -28 13 -28 12 0 13 58 1 66 -5 4 -1 17 7
30 14 20 17 20 23 6 8 -22 40 -22 53 0 5 10 13 15 17 10 4 -4 -1 -15 -10 -26
-16 -18 -16 -20 15 -35 17 -9 35 -14 39 -11 4 3 13 -2 20 -10 10 -12 8 -16
-15 -25 -14 -5 -30 -10 -35 -10 -5 0 -13 -8 -19 -17 -7 -14 -12 -15 -23 -5
-16 13 -28 6 -28 -16 0 -10 6 -12 23 -7 12 3 28 7 35 7 6 1 12 7 12 15 0 18
17 16 24 -3 5 -12 14 -15 35 -11 35 7 65 -18 40 -34 -21 -13 -29 -11 -23 9 5
15 5 16 -5 0 -6 -9 -8 -24 -5 -33 5 -13 9 -14 15 -3 6 10 13 8 29 -9 23 -25
25 -39 8 -46 -7 -2 -10 -8 -6 -12 4 -4 15 -2 25 6 15 12 16 12 10 -3 -3 -10
-3 -17 1 -17 20 3 25 -2 12 -12 -11 -8 -12 -12 -2 -16 23 -9 12 -20 -28 -31
-32 -8 -44 -7 -55 5 -18 18 -19 10 -2 -17 10 -17 9 -22 -2 -29 -9 -6 -11 -16
-6 -31 7 -22 8 -21 20 14 17 49 22 53 40 30 14 -19 14 -19 15 1 1 19 2 19 9 1
5 -14 10 -16 15 -8 4 7 4 17 1 22 -3 6 -1 10 4 10 6 0 11 -4 11 -10 0 -5 10
-18 21 -29 13 -12 19 -26 16 -35 -4 -9 -1 -16 6 -16 7 0 4 -5 -6 -11 -9 -6
-27 -7 -38 -4 -14 5 -25 2 -31 -6 -6 -9 -7 -2 -5 21 2 19 2 27 0 18 -2 -10 -9
-18 -14 -18 -5 0 -9 -9 -9 -19 0 -11 -4 -23 -10 -26 -13 -8 -13 -3 0 30 6 15
7 32 3 38 -4 6 -10 1 -15 -12 -5 -15 -15 -22 -30 -21 -44 4 -53 1 -40 -12 7
-7 20 -13 29 -13 9 0 18 -6 21 -14 3 -10 0 -12 -12 -8 -10 4 -31 7 -47 7 -16
0 -38 9 -48 19 -11 11 -22 17 -25 14 -11 -11 -6 -23 9 -23 12 0 14 -7 9 -27
-8 -33 -14 -42 -14 -21 0 9 -7 22 -17 29 -15 13 -16 11 -9 -16 l7 -29 -27 27
c-15 15 -35 27 -45 27 -11 0 -19 5 -19 11 0 6 -16 1 -36 -11 -26 -15 -40 -18
-47 -11 -8 8 -6 11 6 11 9 0 17 5 17 10 0 6 12 10 27 10 24 0 25 1 11 18 -9 9
-13 23 -11 30 3 6 0 12 -6 12 -6 0 -11 -7 -11 -16 0 -11 -5 -14 -16 -10 -13 5
-14 4 -5 -7 8 -11 5 -16 -15 -25 -34 -16 -36 -15 -29 8 4 11 2 20 -4 20 -6 0
-11 -5 -11 -11 0 -6 -7 -8 -16 -5 -13 5 -15 2 -11 -14 4 -14 0 -23 -11 -27 -9
-3 -24 -12 -32 -18 -19 -15 -100 -26 -100 -14 0 5 16 9 35 9 19 0 35 4 35 10
0 5 15 17 33 27 26 14 28 18 14 21 -29 6 -67 -7 -67 -23 0 -17 -9 -19 -29 -6
-18 12 -41 3 -41 -15 0 -8 -4 -14 -9 -14 -4 0 -6 -12 -4 -27 4 -22 2 -25 -6
-13 -6 8 -8 27 -5 42 3 14 0 29 -5 33 -6 3 -11 -2 -12 -12 0 -13 -4 -10 -13
10 -13 30 -26 26 -26 -9 0 -13 -4 -26 -10 -29 -6 -3 -7 1 -4 9 9 23 -5 19 -27
-6 -11 -14 -18 -18 -19 -9 0 9 -8 11 -27 6 -26 -6 -27 -5 -9 8 19 14 19 15
-12 31 -20 10 -33 12 -37 6 -4 -6 -10 -8 -15 -5 -14 9 -20 -25 -8 -45 10 -15
9 -23 -6 -39 -12 -13 -14 -21 -7 -21 7 0 18 -6 25 -12 13 -14 16 -58 4 -58 -4
0 -8 9 -8 20 0 15 -11 22 -46 31 -31 8 -41 14 -32 20 12 8 4 13 -15 10 -4 -1
-15 5 -23 14 -18 18 -54 20 -54 4 0 -16 31 -38 53 -39 10 0 16 -4 13 -9 -8
-12 -60 0 -69 16 -6 10 -17 13 -33 9 -19 -5 -26 -2 -34 16 -5 13 -9 20 -9 16
-1 -4 -10 -4 -22 0 -34 13 -17 26 31 25 l45 -1 -50 7 c-27 5 -54 6 -58 4 -4
-3 -15 1 -23 8 -13 11 -15 9 -11 -12 2 -13 2 -18 0 -11 -6 17 -23 15 -23 -3 0
-8 -5 -15 -11 -15 -5 0 -9 8 -8 18 2 9 -1 27 -5 40 -7 22 -8 22 -22 5 -16 -21
-18 -37 -4 -28 6 3 10 -1 10 -11 0 -12 -6 -15 -25 -12 -19 4 -31 -2 -50 -23
-20 -24 -24 -26 -27 -11 -2 9 -2 25 0 35 4 15 7 16 13 5 7 -10 12 -10 25 4 16
16 16 17 -12 13 -16 -2 -35 -4 -43 -4 -8 -1 -11 -7 -7 -17 7 -18 -3 -64 -13
-64 -4 0 -14 11 -21 25 -7 13 -17 22 -22 19 -5 -3 -3 -12 3 -21 10 -11 10 -16
0 -23 -10 -5 -10 -9 -1 -15 14 -9 -17 -34 -42 -35 -26 0 -22 16 5 25 23 7 20
9 -28 20 -30 7 -30 7 -10 24 11 9 21 23 23 31 3 11 0 11 -14 -1 -15 -12 -16
-12 -10 9 5 15 3 22 -6 22 -8 0 -6 4 5 11 21 12 22 29 2 29 -8 0 -15 7 -15 15
0 8 4 15 8 15 5 0 9 7 9 16 0 12 -7 14 -35 9 -24 -4 -38 -2 -43 7 -6 8 -9 0
-9 -24 0 -51 -15 -48 -26 4 -10 47 -34 64 -34 24 0 -14 5 -26 10 -26 6 0 10
-9 10 -21 0 -36 -25 -15 -28 24 -2 24 -8 37 -17 37 -11 0 -13 -8 -8 -30 4 -23
2 -30 -11 -30 -9 0 -16 6 -16 14 0 23 -21 30 -38 12 -15 -15 -14 -16 8 -16 13
0 21 -2 19 -4 -2 -2 -6 -4 -9 -3 -3 1 -16 -6 -30 -16 -14 -9 -43 -17 -66 -17
-25 0 -44 -5 -47 -12 -2 -8 -8 -9 -13 -4 -5 5 -4 11 4 13 14 5 17 53 2 53 -5
0 -7 -7 -4 -15 4 -8 1 -15 -4 -15 -6 0 -18 -7 -27 -17 -14 -14 -18 -14 -26 -2
-8 12 -12 11 -24 -5 -13 -17 -15 -18 -15 -3 0 9 5 17 10 17 6 0 10 7 10 15 0
8 5 15 10 15 6 0 10 7 10 15 0 26 -15 16 -44 -30 -16 -25 -31 -45 -33 -45 -2
0 -21 10 -43 22 -38 22 -39 22 -60 3 -15 -14 -20 -27 -16 -46 6 -31 -11 -34
-39 -6 -20 19 -20 19 3 13 16 -5 22 -3 22 8 0 18 -50 30 -92 20 -30 -6 -31 -5
-19 10 17 20 8 31 -16 21 -10 -5 -24 -7 -30 -6 -7 1 -13 -3 -13 -9 0 -5 5 -10
10 -10 6 0 10 -7 10 -15 0 -24 -32 -17 -57 13 -21 25 -24 25 -33 10 -16 -27
-28 -22 -32 15 l-4 32 -14 -28 c-9 -18 -16 -24 -21 -16 -4 7 -18 13 -31 15
-12 1 -25 3 -27 3 -2 1 2 8 9 16 10 12 9 15 -4 16 -9 1 -22 2 -28 3 -7 0 -17
11 -23 24 -5 12 -15 22 -22 22 -7 0 -13 5 -13 11 0 6 -8 23 -19 37 -24 35 -58
94 -88 154 -17 35 -20 53 -14 70 12 30 45 68 60 68 17 0 41 26 41 43 0 17 88
30 105 15 13 -12 45 -10 45 3 0 7 -9 9 -21 6 -13 -3 -19 -1 -16 6 3 7 11 11
18 9 7 -2 29 -4 48 -6 30 -2 36 -7 46 -36 14 -42 22 -44 41 -8 10 19 19 25 34
21 12 -3 20 0 20 7 0 7 -6 10 -14 7 -8 -3 -17 1 -20 9 -5 12 1 15 22 12 21 -2
27 -8 26 -25 -2 -26 3 -27 41 -13 20 8 29 6 44 -9 11 -11 34 -22 52 -26 19 -4
44 -14 56 -22 23 -16 48 -9 37 9 -4 6 -2 8 4 4 6 -3 14 -2 17 4 5 8 11 7 21
-1 11 -9 16 -6 24 15 5 14 15 26 22 26 7 0 25 11 40 25 15 14 32 25 37 25 13
0 46 49 38 57 -4 3 7 17 23 31 17 15 30 32 30 39 0 7 7 13 15 13 8 0 15 4 15
8 0 11 70 33 82 26 4 -3 11 3 15 13 7 17 8 17 11 0 2 -9 8 -14 14 -10z m195
-43 c-3 -3 -12 -4 -19 -1 -8 3 -5 6 6 6 11 1 17 -2 13 -5z m1683 -84 c0 -5 -4
-10 -10 -10 -5 0 -10 5 -10 10 0 6 5 10 10 10 6 0 10 -4 10 -10z m60 -16 c0
-8 -4 -12 -10 -9 -5 3 -10 10 -10 16 0 5 5 9 10 9 6 0 10 -7 10 -16z m-710
-15 c0 -5 -4 -9 -10 -9 -5 0 -10 7 -10 16 0 8 5 12 10 9 6 -3 10 -10 10 -16z
m550 11 c0 -5 -4 -10 -10 -10 -5 0 -10 5 -10 10 0 6 5 10 10 10 6 0 10 -4 10
-10z m40 -10 c0 -5 -4 -10 -10 -10 -5 0 -10 5 -10 10 0 6 5 10 10 10 6 0 10
-4 10 -10z m-723 -26 c-9 -9 -28 6 -21 18 4 6 10 6 17 -1 6 -6 8 -13 4 -17z
m322 -20 c2 -2 1 -7 -2 -11 -4 -4 -12 -2 -18 4 -6 6 -18 9 -25 6 -8 -3 -14 0
-14 7 0 8 9 10 27 5 16 -4 30 -9 32 -11z m-1904 -34 c3 -5 -3 -10 -14 -10 -12
0 -21 5 -21 10 0 6 6 10 14 10 8 0 18 -4 21 -10z m2022 -36 c-3 -3 -12 -4 -19
-1 -8 3 -5 6 6 6 11 1 17 -2 13 -5z m59 -86 c4 -7 3 -8 -4 -4 -7 4 -12 2 -12
-3 0 -6 -4 -11 -10 -11 -5 0 -10 7 -10 15 0 18 26 20 36 3z m-11871 -177 c3
-6 14 -9 24 -8 27 2 80 -44 80 -71 2 -50 -23 -102 -57 -118 -18 -8 -37 -12
-43 -8 -6 4 -14 2 -18 -4 -5 -8 -19 -8 -49 0 -35 9 -43 16 -50 42 -13 47 -4
90 21 102 12 5 21 15 20 22 -2 6 8 14 22 18 14 3 25 12 25 20 0 16 16 19 25 5z
m12000 -11 c3 -5 2 -10 -4 -10 -5 0 -13 5 -16 10 -3 6 -2 10 4 10 5 0 13 -4
16 -10z m15 -35 c0 -8 -4 -15 -10 -15 -5 0 -10 7 -10 15 0 8 5 15 10 15 6 0
10 -7 10 -15z m40 -95 c0 -5 -4 -10 -10 -10 -5 0 -10 5 -10 10 0 6 5 10 10 10
6 0 10 -4 10 -10z m-1690 -19 c0 -6 -4 -13 -10 -16 -5 -3 -10 1 -10 9 0 9 5
16 10 16 6 0 10 -4 10 -9z m1140 -40 c0 -10 -7 -21 -15 -24 -12 -5 -12 -2 -3
18 13 30 18 31 18 6z m432 -3 c-7 -7 -12 -8 -12 -2 0 14 12 26 19 19 2 -3 -1
-11 -7 -17z m-2487 1 c11 -17 -1 -21 -15 -4 -8 9 -8 15 -2 15 6 0 14 -5 17
-11z m919 -28 c-7 -9 -34 10 -34 24 0 13 3 12 18 -2 10 -10 17 -20 16 -22z
m1441 9 c-22 -8 -47 -2 -40 10 2 4 17 5 32 2 24 -5 25 -6 8 -12z m-2091 -1
c-3 -6 0 -15 7 -20 7 -4 10 -11 6 -16 -5 -4 -12 -1 -16 6 -7 10 -12 8 -23 -8
-15 -22 -15 -22 -21 -1 -4 15 0 20 14 20 10 0 18 3 18 8 -3 15 1 22 12 22 5 0
7 -5 3 -11z m510 -4 c-4 -8 -9 -15 -13 -15 -4 0 -8 7 -8 15 0 8 6 15 13 15 8
0 11 -6 8 -15z m46 4 c0 -5 -4 -7 -10 -4 -5 3 -10 1 -10 -6 0 -7 -3 -10 -6 -6
-8 7 4 27 17 27 5 0 9 -5 9 -11z m1400 1 c0 -4 -6 -7 -12 -7 -7 0 -24 -3 -37
-7 -15 -5 -21 -5 -17 2 3 6 0 12 -6 15 -7 2 6 4 30 4 23 0 42 -3 42 -7z
m-1350 -10 c0 -5 -2 -10 -4 -10 -3 0 -8 5 -11 10 -3 6 -1 10 4 10 6 0 11 -4
11 -10z m1260 0 c0 -5 -2 -10 -4 -10 -3 0 -8 5 -11 10 -3 6 -1 10 4 10 6 0 11
-4 11 -10z m-1476 -16 c3 -8 2 -12 -4 -9 -6 3 -10 10 -10 16 0 14 7 11 14 -7z
m-241 -9 c-3 -9 -8 -14 -10 -11 -3 3 -2 9 2 15 9 16 15 13 8 -4z m87 5 c0 -5
-7 -7 -15 -4 -8 4 -15 8 -15 10 0 2 7 4 15 4 8 0 15 -4 15 -10z m1310 6 c0 -3
-4 -8 -10 -11 -5 -3 -10 -1 -10 4 0 6 5 11 10 11 6 0 10 -2 10 -4z m-4846 -20
c35 -1 56 -58 43 -118 -6 -30 -40 -54 -85 -62 -39 -6 -46 -3 -73 23 -16 16
-29 35 -30 43 0 7 -2 24 -3 38 -4 34 3 50 20 43 8 -3 14 1 14 11 0 9 7 16 15
16 8 0 15 5 15 11 0 7 11 8 33 3 17 -4 40 -8 51 -8z m3736 -1 c0 -8 -4 -15
-10 -15 -5 0 -10 7 -10 15 0 8 5 15 10 15 6 0 10 -7 10 -15z m206 3 c5 -8 2
-9 -10 -5 -12 5 -20 -1 -28 -21 -9 -22 -12 -24 -15 -9 -3 10 3 25 14 32 22 18
30 18 39 3z m-709 -14 c-3 -3 -12 -4 -19 -1 -8 3 -5 6 6 6 11 1 17 -2 13 -5z
m620 -31 c-3 -10 -5 -4 -5 12 0 17 2 24 5 18 2 -7 2 -21 0 -30z m397 3 c-5
-14 -9 -15 -15 -5 -5 8 -3 17 4 21 15 9 19 4 11 -16z m153 18 c-3 -3 -12 -4
-19 -1 -8 3 -5 6 6 6 11 1 17 -2 13 -5z m-855 -31 c-5 -24 -6 -25 -12 -8 -8
21 -4 35 9 35 5 0 6 -12 3 -27z m138 12 c0 -8 -2 -15 -4 -15 -2 0 -6 7 -10 15
-3 8 -1 15 4 15 6 0 10 -7 10 -15z m520 0 c-7 -9 -15 -13 -19 -10 -3 3 1 10 9
15 21 14 24 12 10 -5z m270 -5 c0 -5 -2 -10 -4 -10 -3 0 -8 5 -11 10 -3 6 -1
10 4 10 6 0 11 -4 11 -10z m-498 -42 c-9 -9 -12 -7 -12 12 0 19 3 21 12 12 9
-9 9 -15 0 -24z m148 12 c0 -5 -4 -10 -10 -10 -5 0 -10 5 -10 10 0 6 5 10 10
10 6 0 10 -4 10 -10z m497 -5 c16 -5 5 -35 -12 -35 -7 0 -18 7 -26 16 -12 14
-14 14 -21 -5 -4 -12 -13 -21 -19 -21 -9 0 -9 4 0 14 8 10 9 16 1 21 -35 22
17 28 77 10z m-164 -15 c3 -11 1 -20 -4 -20 -5 0 -9 9 -9 20 0 11 2 20 4 20 2
0 6 -9 9 -20z m-1086 -15 c0 -8 -4 -12 -9 -9 -5 3 -6 10 -3 15 9 13 12 11 12
-6z m532 4 c-21 -8 -25 -15 -22 -37 3 -27 3 -27 -7 -3 -13 29 2 51 34 50 19 0
18 -2 -5 -10z m-439 -3 c0 -2 -7 -9 -15 -16 -13 -11 -14 -10 -9 4 5 14 24 23
24 12z m1017 -18 c-3 -8 -6 -5 -6 6 -1 11 2 17 5 13 3 -3 4 -12 1 -19z m-522
-8 c3 -5 1 -10 -4 -10 -6 0 -11 5 -11 10 0 6 2 10 4 10 3 0 8 -4 11 -10z m365
0 c0 -5 -2 -10 -4 -10 -3 0 -8 5 -11 10 -3 6 -1 10 4 10 6 0 11 -4 11 -10z
m127 -22 c-3 -7 -5 -2 -5 12 0 14 2 19 5 13 2 -7 2 -19 0 -25z m238 22 c3 -5
-1 -10 -9 -10 -9 0 -16 5 -16 10 0 6 4 10 9 10 6 0 13 -4 16 -10z m-845 -10
c0 -5 -5 -10 -11 -10 -5 0 -7 5 -4 10 3 6 8 10 11 10 2 0 4 -4 4 -10z m555 0
c3 -6 -1 -7 -9 -4 -18 7 -21 14 -7 14 6 0 13 -4 16 -10z m185 0 c0 -5 -4 -10
-10 -10 -5 0 -10 5 -10 10 0 6 5 10 10 10 6 0 10 -4 10 -10z m-45 -21 c-6 -19
-4 -21 14 -16 25 6 29 -8 5 -17 -9 -4 -25 0 -34 9 -9 9 -25 13 -34 9 -10 -4
-16 -1 -16 9 0 10 7 13 19 10 10 -3 22 0 25 6 13 20 28 12 21 -10z m-968 -21
c-3 -7 -5 -2 -5 12 0 14 2 19 5 13 2 -7 2 -19 0 -25z m53 12 c0 -5 -5 -10 -11
-10 -5 0 -7 5 -4 10 3 6 8 10 11 10 2 0 4 -4 4 -10z m381 -37 c-12 -20 -14
-14 -5 12 4 9 9 14 11 11 3 -2 0 -13 -6 -23z m442 20 c-7 -2 -21 -2 -30 0 -10
3 -4 5 12 5 17 0 24 -2 18 -5z m-248 -33 c47 -24 49 -24 41 -4 -3 8 -2 12 4 9
6 -3 10 -13 10 -21 0 -19 -49 -18 -56 1 -4 8 -17 15 -29 15 -13 0 -27 5 -30
10 -10 16 18 12 60 -10z m145 10 c0 -5 -4 -10 -10 -10 -5 0 -10 5 -10 10 0 6
5 10 10 10 6 0 10 -4 10 -10z m139 -16 c2 -2 2 -7 -1 -10 -9 -9 -78 7 -78 18
0 9 69 2 79 -8z m191 -4 c0 -5 -5 -10 -11 -10 -5 0 -7 5 -4 10 3 6 8 10 11 10
2 0 4 -4 4 -10z m-7295 -28 c13 -12 28 -22 34 -22 6 0 11 -7 11 -15 0 -8 4
-15 9 -15 16 0 19 -122 3 -128 -7 -2 -12 -10 -12 -18 0 -8 -10 -14 -25 -14
-14 0 -25 -4 -25 -8 0 -11 -71 -5 -102 8 -57 25 -100 64 -92 85 4 8 -1 17 -9
21 -23 8 -3 62 38 99 29 27 40 30 90 29 45 -1 63 -6 80 -22z m6695 24 c0 -3
-4 -8 -10 -11 -5 -3 -10 -1 -10 4 0 6 5 11 10 11 6 0 10 -2 10 -4z m270 -26
c-6 -12 -14 -19 -17 -17 -2 3 1 15 7 27 6 12 14 19 17 17 2 -3 -1 -15 -7 -27z
m-7150 0 c-8 -5 -17 -7 -19 -4 -3 3 1 9 9 14 8 5 17 7 19 4 3 -3 -1 -9 -9 -14z
m7087 -5 c0 -8 -4 -12 -9 -9 -4 3 -8 9 -8 15 0 5 4 9 8 9 5 0 9 -7 9 -15z
m243 5 c0 -5 -5 -10 -11 -10 -5 0 -7 5 -4 10 3 6 8 10 11 10 2 0 4 -4 4 -10z
m-393 -6 c-3 -3 -12 -4 -19 -1 -8 3 -5 6 6 6 11 1 17 -2 13 -5z m263 -19 c0
-14 -4 -25 -10 -25 -5 0 -6 8 -3 17 5 12 2 15 -10 10 -17 -6 -23 4 -10 16 15
16 33 6 33 -18z m82 18 c-6 -2 -10 -9 -6 -14 3 -5 -12 -9 -33 -8 l-38 1 35 13
c19 7 40 13 45 13 6 0 4 -2 -3 -5z m-13455 -63 c-3 -13 0 -20 9 -20 8 0 11 6
8 15 -11 27 5 16 21 -15 12 -23 22 -30 45 -30 17 0 30 -4 30 -8 0 -12 78 -54
89 -48 5 3 20 0 35 -7 20 -11 23 -16 13 -26 -14 -14 5 -31 36 -31 21 0 23 -16
2 -24 -22 -8 -19 -26 4 -26 28 0 35 -17 10 -23 -23 -6 -23 -44 1 -39 7 2 17
-3 21 -10 12 -19 11 -48 -2 -48 -6 0 -9 7 -6 15 4 8 1 17 -5 21 -16 10 -3 -49
18 -81 16 -24 73 -38 59 -14 -4 6 3 13 15 16 l22 6 -23 14 c-23 14 -23 14 11
9 19 -3 31 -3 25 2 -5 4 -19 18 -30 31 -18 21 -18 24 -2 18 9 -4 17 -2 17 3 0
6 -5 10 -11 10 -5 0 -7 5 -4 10 5 8 11 8 20 0 9 -8 14 -6 19 6 5 12 9 14 20 5
7 -6 16 -8 19 -4 4 3 8 -9 8 -28 1 -21 3 -26 6 -14 7 30 19 38 43 30 17 -5 20
-12 16 -30 -4 -17 -1 -24 14 -28 11 -3 19 -2 18 2 -2 20 3 41 11 41 4 0 8 -17
7 -37 -1 -29 3 -37 14 -34 30 7 43 6 47 -5 2 -6 -7 -10 -19 -10 -32 1 -34 -28
-3 -42 30 -14 34 -32 5 -25 -11 3 -20 1 -20 -5 0 -5 15 -13 33 -17 17 -4 26
-9 19 -12 -6 -2 -10 -9 -6 -14 3 -5 0 -9 -7 -9 -7 0 -4 -7 7 -15 17 -13 17
-14 2 -15 -25 0 -22 -17 3 -23 15 -4 20 -11 15 -23 -8 -20 2 -56 14 -49 4 3 6
15 3 28 -5 22 -5 22 10 2 11 -13 16 -15 17 -6 0 10 4 11 13 3 8 -7 20 -3 42
14 26 21 27 24 10 24 -19 1 -19 1 -2 11 10 6 21 8 24 5 4 -3 13 3 21 15 10 15
17 18 25 10 6 -6 15 -11 19 -11 13 0 9 55 -4 68 -9 9 -9 12 0 12 7 0 12 7 12
15 0 8 4 15 9 15 6 0 7 -16 4 -35 -5 -29 -3 -35 12 -35 14 0 15 3 6 14 -9 10
-8 16 4 26 9 7 13 20 10 28 -4 11 0 13 16 9 20 -5 20 -5 4 14 -17 18 -17 19 5
27 15 6 19 11 12 16 -7 4 -12 12 -12 17 0 6 5 7 10 4 6 -3 10 0 10 7 0 8 5 7
17 -4 13 -14 14 -20 3 -32 -10 -13 -10 -16 3 -16 29 0 46 12 40 28 -3 10 -2
13 4 6 13 -16 71 -37 82 -29 6 3 11 1 11 -5 0 -7 -9 -14 -20 -17 -11 -3 -17
-9 -14 -14 3 -5 -10 -10 -28 -10 -18 -1 -25 -3 -15 -6 21 -6 23 -23 2 -23 -20
0 -32 -30 -16 -40 10 -5 9 -9 -3 -13 -15 -6 -21 5 -16 28 8 35 4 65 -8 70 -29
11 -42 5 -42 -21 0 -19 -4 -25 -15 -20 -8 3 -15 1 -15 -4 0 -6 7 -10 15 -10 8
0 15 -4 15 -10 0 -5 7 -10 15 -10 9 0 15 -9 15 -25 0 -18 -4 -23 -15 -19 -22
9 -18 -16 7 -37 17 -16 18 -19 5 -19 -10 0 -17 -4 -17 -10 0 -5 5 -10 11 -10
6 0 9 -14 7 -32 -2 -27 1 -33 16 -31 11 1 28 -8 38 -20 l19 -22 -4 33 c-3 28
-1 32 16 26 16 -5 19 -3 14 10 -5 13 -2 16 11 15 9 -2 27 2 39 9 14 8 24 9 28
2 4 -6 10 -8 15 -5 4 3 10 -4 13 -15 3 -11 1 -20 -4 -20 -11 0 -11 -11 1 -30
5 -8 12 -11 17 -7 4 5 1 13 -7 18 -11 8 -4 9 25 5 22 -2 32 -2 23 0 -10 3 -18
11 -18 19 0 7 -7 18 -15 25 -17 14 -20 50 -5 50 6 0 10 -6 10 -14 0 -7 6 -19
14 -25 11 -9 18 -8 30 4 15 15 21 12 17 -9 -1 -4 6 -15 16 -23 17 -13 16 -14
-7 -7 -20 5 -23 4 -13 -7 14 -15 0 -39 -23 -39 -8 0 -14 -7 -14 -15 0 -12 -4
-13 -19 -5 -26 14 -51 2 -51 -24 0 -16 -2 -18 -9 -7 -8 12 -12 12 -25 2 -15
-13 -21 -8 -16 14 1 6 -9 0 -22 -12 -13 -12 -34 -23 -48 -25 -16 -2 -26 -11
-30 -28 l-6 -25 -8 25 c-8 25 -8 25 -17 -7 -5 -18 -14 -33 -19 -33 -5 0 -7 15
-5 33 4 28 4 29 -4 7 -5 -14 -10 -20 -10 -15 -1 6 -8 1 -16 -9 -8 -11 -15 -14
-15 -8 0 7 -4 12 -10 12 -5 0 -10 -19 -10 -42 0 -38 -1 -40 -14 -23 -12 17
-14 17 -37 2 -22 -16 -22 -17 -4 -18 17 0 16 -2 -5 -11 -14 -6 -37 -10 -52 -9
-14 1 -29 -2 -33 -8 -3 -6 -15 -11 -26 -11 -10 0 -19 -5 -19 -10 0 -7 -6 -7
-18 -1 -24 13 -37 4 -55 -39 -14 -31 -16 -32 -12 -7 3 24 0 27 -23 27 -21 0
-24 -2 -12 -10 11 -7 12 -10 2 -10 -7 0 -20 -7 -28 -15 -9 -8 -27 -15 -42 -15
-27 1 -27 1 6 15 17 8 32 16 32 18 0 9 -61 -7 -71 -19 -15 -19 -30 -18 -23 1
4 8 1 15 -4 15 -6 0 -12 -10 -14 -22 -2 -16 -10 -22 -30 -23 -24 0 -27 3 -22
20 5 18 4 18 -11 -2 -11 -16 -26 -23 -48 -23 -18 0 -49 -1 -69 -3 -21 -2 -38
0 -38 5 0 4 14 8 30 8 17 0 30 5 30 11 0 8 -14 10 -40 6 -25 -3 -41 -1 -43 7
-2 6 -7 8 -11 4 -4 -3 0 -18 9 -32 11 -16 13 -26 6 -26 -6 0 -11 5 -11 10 0 6
-6 10 -14 10 -8 0 -17 8 -20 17 -6 15 -8 15 -16 3 -5 -8 -12 -11 -16 -7 -4 4
-13 -1 -20 -11 -12 -16 -13 -15 -14 6 0 21 -3 23 -30 17 -20 -4 -30 -3 -30 5
0 7 7 10 15 6 8 -3 15 -1 15 4 0 9 -17 14 -47 13 -7 -1 -11 3 -8 7 3 4 -2 11
-11 14 -8 3 -14 11 -13 18 5 39 -1 45 -43 42 -42 -2 -43 -2 -43 29 0 43 11 57
46 57 20 0 29 5 29 16 0 8 5 12 10 9 6 -4 10 7 10 24 0 17 -4 31 -10 31 -5 0
-10 -5 -10 -11 0 -5 -5 -7 -12 -3 -9 6 -9 9 -1 11 8 3 9 12 3 29 -7 19 -6 24
5 24 8 0 15 7 15 15 0 8 4 15 9 15 5 0 11 -7 15 -15 9 -25 24 -17 18 10 -3 16
-11 25 -23 25 -11 0 -19 5 -19 10 0 6 9 10 19 10 27 0 76 46 60 56 -7 4 -19
-2 -28 -15 -11 -14 -25 -20 -41 -18 -36 6 -35 21 4 62 33 35 39 55 14 55 -5 0
-8 -7 -4 -15 3 -9 0 -15 -10 -15 -8 0 -28 -15 -45 -32 -22 -24 -29 -28 -29
-15 0 9 5 17 10 17 6 0 10 5 10 11 0 6 -9 9 -20 6 -13 -3 -20 0 -20 10 0 8 -5
11 -10 8 -6 -4 -8 -16 -4 -27 4 -15 2 -19 -7 -16 -8 3 -13 15 -11 26 3 18 -2
22 -25 22 -16 0 -23 -4 -17 -8 8 -5 9 -20 4 -47 -4 -22 -8 -32 -9 -22 -1 18
-21 25 -21 7 0 -5 -5 -10 -11 -10 -8 0 -7 5 1 15 17 20 5 32 -15 15 -13 -11
-17 -7 -30 24 -15 36 -35 49 -35 22 0 -7 -9 -16 -20 -19 -11 -3 -20 -10 -20
-16 0 -6 9 -11 20 -11 11 0 20 -6 20 -14 0 -8 6 -17 13 -19 6 -3 2 -6 -10 -6
-13 -1 -23 4 -23 9 0 14 -27 13 -32 -1 -2 -7 -21 -13 -41 -14 -46 -3 -52 -8
-37 -34 9 -17 8 -21 -5 -21 -9 0 -13 -5 -10 -11 4 -5 1 -24 -5 -40 -7 -16 -9
-33 -5 -37 4 -4 10 -1 12 6 3 7 21 11 46 11 l42 -2 -40 -7 c-22 -4 -35 -8 -30
-9 10 -1 -14 -21 -27 -21 -3 0 -11 14 -17 30 -12 36 -31 39 -31 6 0 -26 -21
-47 -28 -28 -5 15 -25 15 -40 0 -13 -13 12 -37 41 -38 21 0 23 -20 2 -20 -8 0
-15 -6 -15 -14 0 -17 -21 -26 -46 -21 -11 2 -24 4 -30 4 -5 1 -19 7 -29 15
-17 13 -16 14 16 12 34 -1 55 18 22 20 -10 1 -28 4 -40 8 -15 5 -27 1 -42 -15
-11 -12 -18 -26 -15 -30 2 -4 -1 -11 -7 -15 -9 -5 -10 1 -5 19 8 32 -9 45 -24
17 -13 -24 -43 -26 -64 -4 -10 10 -16 11 -16 3 0 -8 -10 -9 -30 -5 -17 3 -29
2 -26 -2 3 -4 1 -14 -3 -20 -8 -14 -41 -6 -41 10 0 5 6 6 13 3 6 -4 4 0 -6 8
-21 17 -13 25 21 22 12 -1 22 4 22 10 0 8 10 10 25 7 20 -3 25 0 25 15 0 10
-5 24 -11 30 -13 13 -4 33 14 33 8 0 9 -3 1 -8 -6 -4 -4 -13 7 -24 15 -14 18
-14 23 -2 3 8 3 21 0 29 -4 8 -1 15 5 15 7 0 16 -10 21 -22 8 -20 9 -21 9 -4
1 19 2 19 21 -2 24 -26 35 -28 26 -6 -3 8 1 26 10 40 12 18 13 24 3 24 -7 0
-9 3 -6 7 4 3 2 12 -4 20 -9 10 -6 13 15 13 29 0 31 6 16 45 -7 18 -6 37 4 65
8 22 10 43 5 46 -5 3 -9 0 -9 -7 0 -7 -3 -10 -6 -6 -11 10 7 46 20 41 9 -3 22
11 35 40 12 25 30 47 39 49 14 3 12 6 -7 14 -20 8 -21 11 -8 16 10 4 17 13 17
21 0 20 41 47 77 49 18 2 31 10 38 25 11 24 25 30 25 10 0 -9 3 -9 9 1 7 11
13 12 23 4 8 -7 22 -7 37 -2 19 7 22 15 19 39 -2 16 -1 27 3 24 4 -2 14 3 22
11 9 8 26 15 39 16 13 0 17 3 10 6 -6 2 -9 9 -6 15 3 5 -4 20 -16 33 -12 13
-19 28 -15 34 9 15 45 14 46 -1 0 -10 2 -10 6 0 9 22 23 13 23 -15 0 -28 1
-28 18 7 11 23 18 29 20 18 2 -10 10 -14 21 -11 10 3 22 0 25 -6 10 -16 26
-13 26 4 0 8 5 15 10 15 6 0 20 9 32 20 12 11 26 20 31 20 5 0 7 -9 4 -20z
m3824 -71 c29 -19 34 -51 14 -89 -22 -42 -48 -60 -95 -62 -8 0 -20 -5 -26 -10
-7 -5 -33 -2 -65 9 -51 17 -54 20 -51 48 5 59 12 75 32 75 11 0 20 7 20 15 0
8 9 15 19 15 11 0 22 3 25 8 8 14 101 7 127 -9z m-3466 -189 c3 -6 -1 -7 -9
-4 -18 7 -21 14 -7 14 6 0 13 -4 16 -10z m308 -77 c3 -5 -5 -8 -18 -8 -13 0
-21 3 -18 8 2 4 10 7 18 7 8 0 16 -3 18 -7z m267 -27 c0 -11 -19 -15 -25 -6
-3 5 1 10 9 10 9 0 16 -2 16 -4z m-565 -16 c3 -5 -1 -10 -9 -10 -9 0 -16 5
-16 10 0 6 4 10 9 10 6 0 13 -4 16 -10z m570 -20 c-3 -5 -13 -10 -21 -10 -8 0
-14 5 -14 10 0 6 9 10 21 10 11 0 17 -4 14 -10z m-267 -18 c2 -7 -2 -10 -12
-6 -9 3 -16 11 -16 16 0 13 23 5 28 -10z m361 -14 c0 -7 -4 -22 -8 -32 -10
-26 -25 -3 -16 24 7 22 25 28 24 8z m-2828 -63 c11 6 12 5 2 -6 -19 -20 -16
-31 10 -28 12 1 42 -4 66 -11 40 -13 45 -12 57 5 10 14 14 15 14 4 1 -10 5 -9
15 5 14 19 15 17 16 -20 0 -33 2 -36 9 -16 10 24 57 31 77 11 12 -12 37 -3 28
11 -3 4 4 6 15 3 11 -3 20 -9 20 -14 0 -5 12 -9 26 -9 14 0 23 -4 19 -10 -3
-5 -2 -10 4 -10 6 0 8 -6 5 -14 -3 -8 -1 -17 4 -20 6 -3 8 -15 5 -27 -5 -16
-8 -18 -15 -7 -7 9 -8 7 -3 -8 3 -11 -1 -36 -9 -55 -13 -28 -15 -30 -16 -11 0
12 -4 22 -10 22 -5 0 -10 -16 -10 -36 0 -28 -3 -35 -15 -30 -8 3 -15 1 -15 -5
0 -6 -5 -7 -10 -4 -8 5 -8 11 0 20 8 10 4 14 -17 18 -18 4 -32 1 -39 -9 -15
-19 -28 -18 -20 2 5 13 1 14 -22 9 -16 -3 -47 -2 -70 4 -24 5 -42 5 -42 0 0
-5 14 -9 30 -9 23 0 30 -4 30 -20 0 -13 -7 -20 -20 -20 -11 0 -20 -5 -20 -10
0 -16 -44 -29 -53 -16 -6 8 -10 8 -14 -1 -6 -17 -23 -17 -23 0 0 7 -7 22 -15
33 -15 18 -16 17 -10 -13 6 -29 4 -32 -11 -26 -16 6 -16 5 -4 -8 8 -9 25 -13
43 -11 21 3 28 1 23 -7 -4 -6 -14 -11 -21 -11 -9 0 -14 -8 -12 -21 1 -12 -4
-24 -10 -26 -8 -3 -13 4 -13 16 0 14 -6 21 -20 21 -22 0 -23 -1 -14 -24 3 -9
12 -16 19 -16 7 0 18 -6 24 -14 10 -11 8 -15 -6 -19 -22 -7 -134 -22 -150 -20
-6 0 -14 -8 -16 -18 -3 -11 -1 -19 3 -19 5 0 8 -9 7 -20 -1 -20 -17 -29 -17
-10 0 17 -27 11 -34 -7 -3 -10 -9 -23 -12 -30 -3 -7 6 -13 27 -15 18 -2 34 -8
36 -14 2 -6 -10 -8 -32 -6 -21 3 -35 0 -35 -7 0 -6 14 -11 30 -11 34 0 42 -20
8 -21 -16 0 -10 -5 17 -13 38 -12 40 -11 49 11 12 28 26 30 26 2 0 -13 -11
-25 -35 -35 -19 -8 -35 -20 -35 -27 0 -8 -3 -8 -9 2 -6 8 -14 10 -22 5 -8 -5
-24 -7 -36 -5 -16 1 -23 -3 -23 -13 0 -9 -4 -16 -10 -16 -5 0 -10 7 -10 15 0
14 -40 42 -40 28 0 -4 -5 -1 -10 7 -9 13 -12 13 -21 -2 -5 -10 -16 -18 -24
-18 -21 0 -30 22 -12 32 20 11 8 50 -15 54 -9 1 -25 11 -37 23 -18 18 -19 21
-4 21 9 0 14 3 10 6 -3 4 -19 2 -36 -4 -21 -7 -31 -7 -33 0 -2 6 -37 11 -81
12 -57 1 -76 4 -72 14 6 16 -27 16 -43 0 -9 -9 -12 -9 -12 0 0 7 5 12 10 12 6
0 10 4 10 10 0 5 -5 9 -11 7 -6 -1 -14 4 -16 11 -3 6 3 12 12 12 11 0 15 5 11
15 -4 10 1 15 16 15 16 0 19 3 11 11 -16 16 -5 39 15 31 15 -5 15 -4 3 11 -9
12 -10 17 -2 17 7 0 23 12 38 26 14 14 31 23 39 20 8 -3 14 -1 14 4 0 5 8 9
18 8 44 -3 62 3 62 21 0 11 5 23 12 27 8 5 9 2 5 -9 -10 -25 7 -28 27 -5 15
17 20 18 27 7 6 -10 9 -11 9 -1 0 7 12 18 26 24 22 10 23 13 9 18 -15 5 -14 9
9 23 14 10 26 13 26 7 0 -5 5 -10 11 -10 5 0 8 4 5 9 -4 5 -2 20 3 34 10 26
57 43 65 23 3 -6 4 0 3 14 -1 17 6 28 26 38 16 7 33 25 39 38 7 15 14 20 18
14 9 -15 60 -1 60 16 0 14 4 16 55 18 24 1 29 5 27 21 -2 15 -1 17 6 6 6 -8
15 -10 23 -6z m1146 -57 c-3 -8 -6 -5 -6 6 -1 11 2 17 5 13 3 -3 4 -12 1 -19z
m1900 -14 c-3 -3 -12 -4 -19 -1 -8 3 -5 6 6 6 11 1 17 -2 13 -5z m-1450 -26
c-3 -8 -6 -5 -6 6 -1 11 2 17 5 13 3 -3 4 -12 1 -19z m153 18 c0 -3 -4 -8 -10
-11 -5 -3 -10 -1 -10 4 0 6 5 11 10 11 6 0 10 -2 10 -4z m58 -44 c6 -19 -13
-14 -33 8 -18 20 -18 21 5 12 13 -5 26 -14 28 -20z m-168 8 c0 -5 -2 -10 -4
-10 -3 0 -8 5 -11 10 -3 6 -1 10 4 10 6 0 11 -4 11 -10z m77 4 c-3 -3 -12 -4
-19 -1 -8 3 -5 6 6 6 11 1 17 -2 13 -5z m-147 -8 c0 -2 -7 -6 -15 -10 -8 -3
-15 -1 -15 4 0 6 7 10 15 10 8 0 15 -2 15 -4z m185 -16 c4 -6 -6 -10 -22 -9
-25 0 -26 1 -8 9 11 5 21 9 22 9 1 1 5 -3 8 -9z m-229 -13 c4 -4 -2 -7 -14 -7
-11 0 -24 5 -27 10 -7 11 30 8 41 -3z m58 -22 c-6 -25 8 -35 21 -15 3 6 15 10
26 10 11 0 18 4 15 9 -4 5 3 7 15 4 13 -4 16 -8 10 -13 -7 -3 -9 -14 -5 -23 5
-13 0 -17 -19 -17 -14 0 -29 -4 -32 -10 -3 -5 -1 -10 6 -10 7 0 10 -2 7 -5
-10 -10 -37 7 -32 20 3 7 -3 16 -14 19 -11 4 -22 16 -25 26 -3 11 -1 18 4 14
5 -3 9 0 9 5 0 6 5 11 10 11 6 0 8 -11 4 -25z m36 15 c0 -5 -4 -10 -10 -10 -5
0 -10 5 -10 10 0 6 5 10 10 10 6 0 10 -4 10 -10z m101 -9 c-11 -7 -11 -10 0
-17 7 -4 14 -3 17 4 5 16 22 5 22 -14 0 -10 -7 -13 -25 -8 -15 4 -25 2 -25 -5
0 -6 7 -11 15 -11 8 0 15 -7 15 -16 0 -11 6 -14 22 -8 20 6 21 5 10 -8 -17
-22 -55 -3 -71 34 -14 30 -2 58 23 58 6 0 5 -4 -3 -9z m-226 -31 c3 -5 -3 -10
-14 -10 -12 0 -21 5 -21 10 0 6 6 10 14 10 8 0 18 -4 21 -10z m62 -42 c-3 -8
-6 -5 -6 6 -1 11 2 17 5 13 3 -3 4 -12 1 -19z m117 -17 c-10 -10 -22 -17 -26
-14 -11 6 14 32 31 33 11 0 9 -5 -5 -19z m-654 -1 c0 -5 -12 -10 -27 -9 l-28
1 25 8 c14 4 26 8 28 9 1 1 2 -3 2 -9z m464 -5 c-4 -8 -12 -15 -20 -15 -17 0
-18 17 -1 23 22 9 27 7 21 -8z m111 -13 c-3 -3 -11 0 -18 7 -9 10 -8 11 6 5
10 -3 15 -9 12 -12z m-1330 -2 c-4 -6 -3 -19 1 -28 11 -27 15 -52 6 -52 -4 0
-18 9 -32 20 -14 11 -18 18 -9 14 10 -3 20 0 24 6 4 7 -2 14 -14 17 -28 7 -27
20 2 26 12 2 23 5 25 6 2 0 0 -4 -3 -9z m102 -22 c-3 -8 -6 -5 -6 6 -1 11 2
17 5 13 3 -3 4 -12 1 -19z m1293 -10 c0 -5 -13 -7 -29 -3 -17 3 -32 2 -36 -4
-4 -7 -10 -7 -19 2 -17 14 -11 28 8 21 8 -3 17 -1 20 5 8 12 56 -7 56 -21z
m-1240 0 c0 -16 -3 -19 -11 -11 -6 6 -8 16 -5 22 11 17 16 13 16 -11z m1010 6
c0 -8 -4 -12 -10 -9 -5 3 -10 10 -10 16 0 5 5 9 10 9 6 0 10 -7 10 -16z m120
12 c0 -3 -4 -8 -10 -11 -5 -3 -10 -1 -10 4 0 6 5 11 10 11 6 0 10 -2 10 -4z
m240 -12 c0 -9 -5 -14 -12 -12 -18 6 -21 28 -4 28 9 0 16 -7 16 -16z m-1590
-4 c0 -5 -13 -10 -30 -10 -16 0 -30 -5 -30 -11 0 -6 8 -9 19 -6 14 3 17 0 14
-12 -4 -15 -11 -16 -54 -7 -45 9 -48 12 -33 23 10 7 26 13 36 13 10 0 18 5 18
10 0 6 14 10 30 10 17 0 30 -4 30 -10z m187 -15 c-4 -9 -17 -14 -34 -14 l-28
2 28 4 c16 3 27 11 27 20 0 9 3 14 6 10 4 -3 4 -13 1 -22z m-890 9 c-3 -3 -12
-4 -19 -1 -8 3 -5 6 6 6 11 1 17 -2 13 -5z m1896 -11 c-18 -7 -16 -23 3 -23 8
0 12 -5 8 -11 -4 -7 -11 -6 -21 4 -16 16 -10 38 10 36 9 0 9 -2 0 -6z m165
-10 c-7 -9 -14 -10 -23 -3 -7 6 -20 8 -29 4 -9 -3 -16 -1 -16 4 0 6 17 10 39
9 32 -1 38 -4 29 -14z m162 -3 c0 -5 -2 -10 -4 -10 -3 0 -8 5 -11 10 -3 6 -1
10 4 10 6 0 11 -4 11 -10z m-1386 -35 c-4 -8 -14 -15 -23 -15 -14 0 -14 2 -1
11 11 8 12 12 3 16 -7 2 -13 9 -13 14 0 6 8 5 20 -1 11 -6 17 -16 14 -25z
m126 25 c0 -5 -6 -10 -14 -10 -8 0 -18 5 -21 10 -3 6 3 10 14 10 12 0 21 -4
21 -10z m570 0 c-19 -13 -30 -13 -30 0 0 6 10 10 23 10 18 0 19 -2 7 -10z
m155 1 c3 -5 1 -12 -5 -16 -5 -3 -10 1 -10 9 0 18 6 21 15 7z m455 -1 c0 -5
-4 -10 -10 -10 -5 0 -10 5 -10 10 0 6 5 10 10 10 6 0 10 -4 10 -10z m-1407
-37 c-4 -11 -8 -12 -13 -3 -6 9 -10 8 -17 -4 -9 -16 -11 -16 -22 -2 -11 13
-11 16 3 16 9 0 19 7 22 15 5 12 10 13 20 5 7 -7 10 -18 7 -27z m157 27 c18
-12 2 -12 -25 0 -13 6 -15 9 -5 9 8 0 22 -4 30 -9z m200 0 c8 -5 11 -10 5 -10
-5 0 -17 5 -25 10 -8 5 -10 10 -5 10 6 0 17 -5 25 -10z m-79 -37 c-9 -17 -10
-17 -17 1 -4 11 -2 21 7 27 18 11 24 -5 10 -28z m819 22 c0 -8 -4 -15 -10 -15
-5 0 -10 7 -10 15 0 8 5 15 10 15 6 0 10 -7 10 -15z m270 -17 c0 -6 -7 -5 -15
2 -8 7 -15 17 -15 22 0 6 7 5 15 -2 8 -7 15 -17 15 -22z m-360 18 c0 -3 -4 -8
-10 -11 -5 -3 -10 -1 -10 4 0 6 5 11 10 11 6 0 10 -2 10 -4z m437 -28 c-3 -7
-5 -2 -5 12 0 14 2 19 5 13 2 -7 2 -19 0 -25z m-1612 12 c3 -5 -1 -10 -9 -10
-9 0 -16 5 -16 10 0 6 4 10 9 10 6 0 13 -4 16 -10z m70 0 c-3 -5 -12 -10 -18
-10 -7 0 -6 4 3 10 19 12 23 12 15 0z m435 -7 c0 -15 2 -14 16 3 15 19 15 19
11 -2 -3 -13 3 -28 14 -38 22 -19 39 -22 21 -4 -18 18 -15 28 9 28 15 0 19 -5
15 -16 -3 -9 -2 -12 5 -9 6 4 8 13 5 21 -11 28 10 21 23 -8 9 -20 16 -26 21
-18 4 7 13 10 19 6 16 -10 9 -57 -11 -70 -10 -6 -18 -16 -18 -23 0 -9 -15 -13
-42 -13 -26 0 -38 4 -30 8 7 5 10 16 6 25 -3 10 -1 17 5 17 6 0 11 8 11 17 0
14 -3 14 -20 -5 -11 -12 -20 -28 -20 -37 0 -8 -4 -15 -10 -15 -5 0 -10 -9 -10
-20 0 -11 5 -20 10 -20 6 0 10 4 10 10 0 5 7 7 15 4 11 -5 12 -9 2 -25 -7 -11
-13 -15 -15 -9 -5 14 -35 13 -50 -2 -7 -7 -12 -8 -12 -2 0 7 -18 8 -49 4 -44
-6 -50 -4 -56 14 -6 18 -8 19 -12 4 -3 -11 -10 -15 -20 -11 -9 4 -21 -1 -29
-12 -13 -18 -14 -18 -14 3 0 12 -4 22 -10 22 -5 0 -10 -18 -10 -40 0 -22 -4
-40 -10 -40 -5 0 -10 18 -10 40 0 37 3 41 31 47 17 3 33 13 36 22 2 9 8 23 12
31 5 8 4 26 -1 40 l-9 25 -20 -25 -19 -25 14 35 c18 45 28 47 51 8 10 -18 20
-27 23 -20 2 7 8 9 14 6 7 -5 9 2 4 19 -6 25 -5 26 31 24 27 -1 37 2 35 11 -1
8 2 11 8 7 5 -3 10 1 10 9 0 9 5 16 10 16 6 0 10 -8 10 -17z m80 7 c0 -5 -2
-10 -4 -10 -3 0 -8 5 -11 10 -3 6 -1 10 4 10 6 0 11 -4 11 -10z m-214 -9 c-4
-5 -1 -11 6 -13 8 -3 9 -11 3 -24 -8 -18 -9 -18 -12 4 -3 12 -10 22 -16 22 -7
0 -6 4 3 10 19 12 23 12 16 1z m284 -11 c0 -5 -2 -10 -4 -10 -3 0 -8 5 -11 10
-3 6 -1 10 4 10 6 0 11 -4 11 -10z m-548 -25 c-2 -14 -6 -25 -8 -25 -2 0 -4
11 -4 25 0 14 4 25 9 25 4 0 6 -11 3 -25z m75 19 c-3 -3 -12 -4 -19 -1 -8 3
-5 6 6 6 11 1 17 -2 13 -5z m1453 -24 c13 -8 13 -10 -2 -10 -9 0 -20 5 -23 10
-8 13 5 13 25 0z m110 -10 c-20 -13 -33 -13 -25 0 3 6 14 10 23 10 15 0 15 -2
2 -10z m-1780 -10 c0 -5 -7 -10 -16 -10 -8 0 -12 5 -9 10 3 6 10 10 16 10 5 0
9 -4 9 -10z m-47 -15 c4 -8 1 -17 -5 -21 -7 -4 -8 -3 -4 4 5 8 0 11 -11 10
-10 0 -29 0 -43 2 -19 2 -16 4 15 10 22 4 41 8 41 9 1 0 4 -6 7 -14z m793 -22
c-7 -7 -26 7 -26 19 0 6 6 6 15 -2 9 -7 13 -15 11 -17z m-886 4 c0 -6 -3 -7
-7 -4 -3 4 -11 3 -17 -2 -7 -5 -15 -4 -22 3 -9 10 -5 13 17 13 16 0 29 -5 29
-10z m200 3 c8 -5 11 -12 8 -15 -4 -4 -17 0 -30 9 -24 17 -5 23 22 6z m-173
-32 c-3 -7 -5 -2 -5 12 0 14 2 19 5 13 2 -7 2 -19 0 -25z m110 -10 c-3 -7 -5
-2 -5 12 0 14 2 19 5 13 2 -7 2 -19 0 -25z m-127 12 c0 -5 -4 -10 -10 -10 -5
0 -10 5 -10 10 0 6 5 10 10 10 6 0 10 -4 10 -10z m170 -34 c0 -26 -6 -18 -14
19 -5 22 -4 26 4 15 5 -8 10 -24 10 -34z m261 35 c-12 -8 -12 -13 -3 -24 10
-12 9 -16 -3 -21 -10 -3 -15 -19 -15 -43 0 -36 -2 -38 -33 -40 -29 -1 -30 -1
-9 8 14 5 22 16 20 26 -1 10 1 24 6 32 7 11 3 13 -20 7 -27 -7 -28 -6 -9 7 11
9 23 13 27 11 13 -8 9 21 -4 34 -9 9 -4 12 23 12 24 0 30 -3 20 -9z m2159 -6
c0 -8 -4 -15 -10 -15 -5 0 -10 7 -10 15 0 8 5 15 10 15 6 0 10 -7 10 -15z
m-2530 -16 c0 -5 -4 -9 -10 -9 -5 0 -10 7 -10 16 0 8 5 12 10 9 6 -3 10 -10
10 -16z m45 -29 c-3 -4 2 -11 11 -14 9 -4 14 -9 11 -12 -3 -3 -16 2 -29 10
-14 9 -27 13 -31 10 -3 -3 -3 4 0 17 6 22 7 22 14 3 6 -16 8 -14 9 11 1 29 2
29 11 7 5 -13 7 -27 4 -32z m375 40 c0 -5 -7 -10 -16 -10 -8 0 -12 5 -9 10 3
6 10 10 16 10 5 0 9 -4 9 -10z m354 -11 c-8 -14 -24 -10 -24 6 0 9 6 12 15 9
8 -4 12 -10 9 -15z m-866 -24 c0 -14 -4 -25 -9 -25 -5 0 -9 14 -9 31 0 16 4
28 9 25 5 -3 9 -17 9 -31z m337 25 c-3 -5 -11 -10 -16 -10 -6 0 -7 5 -4 10 3
6 11 10 16 10 6 0 7 -4 4 -10z m-405 -20 c0 -5 -4 -10 -10 -10 -5 0 -10 5 -10
10 0 6 5 10 10 10 6 0 10 -4 10 -10z m122 -8 c-7 -2 -12 -11 -12 -20 0 -14 -2
-14 -9 -3 -10 16 8 42 24 33 5 -3 4 -7 -3 -10z m198 -13 c0 -16 -4 -28 -9 -25
-5 3 -8 17 -8 31 0 14 3 25 8 25 5 0 9 -14 9 -31z m1885 9 c6 -4 2 -8 -7 -8
-10 0 -18 7 -18 17 0 9 3 12 8 7 4 -5 12 -12 17 -16z m-1785 2 c8 -5 12 -11
10 -14 -3 -2 -14 2 -24 10 -22 15 -10 19 14 4z m-40 -10 c0 -5 -2 -10 -4 -10
-3 0 -8 5 -11 10 -3 6 -1 10 4 10 6 0 11 -4 11 -10z m-248 -32 c-7 -7 -12 -8
-12 -2 0 14 12 26 19 19 2 -3 -1 -11 -7 -17z m258 2 c0 -5 -4 -10 -10 -10 -5
0 -10 5 -10 10 0 6 5 10 10 10 6 0 10 -4 10 -10z m80 0 c0 -5 -7 -10 -15 -10
-7 0 -19 -8 -24 -17 -7 -13 -10 -14 -11 -4 0 13 28 40 43 41 4 0 7 -4 7 -10z
m250 -4 c0 -2 -9 -6 -20 -9 -11 -3 -20 -1 -20 4 0 5 9 9 20 9 11 0 20 -2 20
-4z m-670 -27 c0 -5 -7 -9 -15 -9 -9 0 -12 6 -9 15 6 15 24 11 24 -6z m275 1
c3 -5 1 -10 -4 -10 -6 0 -11 -8 -11 -17 0 -15 -2 -15 -9 -4 -10 15 -4 41 9 41
5 0 12 -4 15 -10z m61 -27 c-10 -10 -19 5 -10 18 6 11 8 11 12 0 2 -7 1 -15
-2 -18z m-629 11 c-3 -3 -12 -4 -19 -1 -8 3 -5 6 6 6 11 1 17 -2 13 -5z m828
-5 c11 -17 -1 -21 -15 -4 -8 9 -8 15 -2 15 6 0 14 -5 17 -11z m-483 -31 c-8
-8 -9 -4 -5 13 4 13 8 18 11 10 2 -7 -1 -18 -6 -23z m439 17 c-1 -15 -24 -12
-29 3 -3 9 2 13 12 10 10 -1 17 -7 17 -13z m-75 -4 c-3 -5 -17 -8 -31 -8 -14
0 -25 3 -25 8 0 5 14 9 31 9 16 0 28 -4 25 -9z m189 -1 c3 -5 -1 -10 -9 -10
-9 0 -16 5 -16 10 0 6 4 10 9 10 6 0 13 -4 16 -10z m-601 -53 c-8 -5 -20 -6
-27 -3 -7 2 -4 5 6 5 9 1 17 9 17 19 0 14 2 15 10 2 6 -10 5 -17 -6 -23z m556
23 c0 -5 -4 -10 -10 -10 -5 0 -10 5 -10 10 0 6 5 10 10 10 6 0 10 -4 10 -10z
m-716 -16 c4 -10 1 -14 -6 -12 -15 5 -23 28 -10 28 5 0 13 -7 16 -16z m96 -3
c0 -4 -11 -6 -25 -3 -14 2 -25 6 -25 8 0 2 11 4 25 4 14 0 25 -4 25 -9z m3646
-14 c12 -11 22 -77 12 -77 -5 0 -17 -9 -26 -20 -10 -11 -31 -24 -48 -29 -25
-7 -33 -5 -43 11 -6 10 -9 23 -5 29 3 5 0 17 -7 26 -11 12 -11 17 2 27 8 6 18
18 21 27 5 12 17 16 48 14 22 -1 43 -5 46 -8z m6168 -194 c33 -2 36 -5 41 -30
1 -10 8 -17 14 -15 8 1 11 -11 8 -40 -3 -30 -9 -44 -20 -46 -10 -2 -17 -10
-17 -17 0 -17 -61 -36 -74 -24 -5 5 -15 1 -22 -9 -12 -15 -13 -14 -14 13 -1
17 -4 24 -7 18 -6 -17 -23 -17 -23 0 0 7 -9 18 -21 25 -15 10 -18 16 -10 26 8
10 7 17 -5 27 -14 12 -14 14 2 26 12 9 14 13 4 13 -15 0 -11 7 5 10 6 1 16 6
23 12 6 6 12 8 12 4 0 -3 15 3 33 13 21 12 34 14 37 7 3 -6 18 -12 34 -13z
m2374 -209 c7 -7 18 -11 25 -8 9 3 18 -12 27 -46 7 -27 17 -50 22 -50 4 0 8
-5 8 -11 0 -5 -5 -7 -12 -3 -8 5 -9 2 -5 -9 4 -11 -2 -22 -18 -33 -13 -8 -22
-21 -19 -28 6 -15 -60 -38 -84 -29 -9 4 -13 2 -8 -5 3 -6 2 -13 -4 -17 -6 -4
-10 5 -10 22 0 15 -4 23 -8 17 -14 -22 -55 -9 -66 22 -5 16 -15 35 -23 42 -18
18 -15 95 4 88 8 -3 13 2 13 12 1 21 46 56 65 48 8 -3 17 -1 20 4 8 12 55 1
73 -16z m-8036 -130 c22 -17 24 -22 15 -56 -5 -21 -20 -44 -33 -53 -33 -21
-100 -10 -120 20 -21 33 -8 75 27 89 16 6 29 14 29 18 0 14 57 1 82 -18z
m10402 -159 c-4 -8 -11 -15 -16 -15 -6 0 -5 6 2 15 7 8 14 15 16 15 2 0 1 -7
-2 -15z m-36 -40 c-3 -3 -9 2 -12 12 -6 14 -5 15 5 6 7 -7 10 -15 7 -18z m-59
-48 c-9 -7 -18 -19 -22 -27 -5 -13 -6 -13 -6 1 -1 17 18 39 34 39 5 0 3 -6 -6
-13z m-39 -27 c0 -5 -5 -10 -11 -10 -5 0 -7 5 -4 10 3 6 8 10 11 10 2 0 4 -4
4 -10z m-7140 -470 c0 -5 -5 -10 -11 -10 -5 0 -7 5 -4 10 3 6 8 10 11 10 2 0
4 -4 4 -10z m-20 -94 c0 -3 -4 -8 -10 -11 -5 -3 -10 -1 -10 4 0 6 5 11 10 11
6 0 10 -2 10 -4z m3418 -698 c-2 -8 11 -14 35 -16 29 -2 37 -7 33 -18 -3 -8 0
-13 7 -11 7 1 12 -7 12 -18 0 -14 6 -19 20 -17 15 2 17 1 6 -6 -8 -6 -11 -18
-7 -29 9 -28 -50 -76 -85 -69 -49 9 -54 11 -61 21 -5 6 -12 4 -18 -5 -8 -13
-10 -13 -10 2 0 9 -7 21 -16 26 -11 6 -15 17 -11 31 3 14 0 21 -9 21 -8 0 -11
6 -8 15 4 8 10 12 15 9 5 -3 9 0 9 6 0 13 15 29 50 53 29 20 41 22 38 5z
m-7350 -38 c2 -6 9 -10 16 -10 18 0 44 -69 43 -111 -2 -27 -11 -43 -36 -67
-19 -17 -38 -29 -43 -26 -4 3 -8 0 -8 -6 0 -7 -6 -10 -14 -7 -8 3 -16 1 -18
-5 -6 -16 -58 -1 -58 17 0 8 -6 15 -12 15 -7 0 -24 12 -37 26 -20 21 -25 37
-25 79 -1 55 9 73 59 103 23 14 128 7 133 -8z m-3030 -422 c-2 -6 8 -24 24
-38 32 -31 33 -36 14 -56 -17 -17 -61 -19 -50 -3 4 7 1 10 -7 7 -8 -3 -13 -11
-11 -17 1 -6 -2 -11 -8 -11 -5 0 -10 5 -10 10 0 6 -16 10 -35 10 -24 0 -35 5
-35 15 0 9 6 12 15 9 9 -4 22 6 36 30 12 21 29 36 40 36 10 0 19 5 19 10 0 6
3 10 6 10 3 0 4 -5 2 -12z m-70 -127 c3 -10 0 -12 -11 -8 -9 3 -18 1 -21 -6
-2 -7 -5 -2 -5 11 -1 17 4 23 16 20 9 -2 18 -9 21 -17z m-98 -1 c0 -5 -2 -10
-4 -10 -3 0 -8 5 -11 10 -3 6 -1 10 4 10 6 0 11 -4 11 -10z m204 -11 c-3 -5
-1 -9 5 -9 5 0 12 5 14 10 3 6 4 5 3 -2 -2 -7 1 -21 5 -30 6 -10 5 -19 -1 -23
-5 -3 -10 3 -10 15 0 12 -4 19 -9 15 -5 -3 -21 5 -35 18 l-25 23 29 -4 c17 -2
27 -8 24 -13z m-464 -7 c3 -2 -1 -7 -8 -9 -7 -3 3 -13 25 -24 81 -41 103 -79
24 -41 -29 14 -41 17 -41 8 0 -18 -54 -18 -93 -1 -19 8 -25 14 -14 15 12 0 17
8 17 28 0 21 2 24 10 12 9 -14 12 -12 9 6 -3 21 53 25 71 6z m-1637 -9 c-7 -2
-19 -2 -25 0 -7 3 -2 5 12 5 14 0 19 -2 13 -5z m2062 -3 c3 -5 1 -10 -4 -10
-6 0 -11 5 -11 10 0 6 2 10 4 10 3 0 8 -4 11 -10z m-345 -20 c0 -5 -2 -10 -4
-10 -3 0 -8 5 -11 10 -3 6 -1 10 4 10 6 0 11 -4 11 -10z m42 -32 c-7 -7 -12
-8 -12 -2 0 14 12 26 19 19 2 -3 -1 -11 -7 -17z m7512 -424 c29 -11 37 -40 25
-89 -12 -49 -16 -52 -45 -31 -17 13 -18 18 -7 47 9 22 9 37 3 43 -13 13 -13
36 -1 36 5 0 17 -3 25 -6z m-354 -73 c0 -5 -10 -11 -22 -13 -26 -3 -37 -41
-19 -62 9 -10 8 -21 -3 -42 -8 -16 -17 -37 -20 -47 -4 -12 -14 -17 -28 -15
-20 3 -23 8 -20 43 4 40 52 129 75 139 20 8 37 6 37 -3z m240 -23 c28 -31 29
-37 24 -93 -9 -100 -11 -105 -43 -105 -21 0 -30 6 -35 23 -11 42 -6 77 14 94
26 23 25 41 -2 45 -18 2 -24 11 -26 36 -3 27 0 32 18 32 11 0 34 -15 50 -32z
m84 -63 c17 -13 18 -18 6 -39 -23 -44 -40 -40 -40 9 0 48 5 52 34 30z m-167
-60 c-5 -16 -114 -18 -136 -3 -16 11 -7 13 60 13 49 0 78 -4 76 -10z m-7 -60
c10 -12 9 -16 -5 -21 -20 -8 -95 13 -95 26 0 16 86 12 100 -5z m-96 -30 c31
-13 36 -19 30 -38 -9 -31 -13 -33 -32 -19 -9 7 -25 15 -34 18 -19 7 -21 14
-12 38 7 19 4 19 48 1z m246 1 c0 -8 -4 -18 -10 -21 -5 -3 -10 3 -10 14 0 12
5 21 10 21 6 0 10 -6 10 -14z m-636 -102 c19 -50 -6 -114 -46 -114 -22 0 -22
11 -3 78 16 52 37 67 49 36z m-1104 -49 c231 -19 244 -22 248 -61 5 -42 22
-55 22 -17 0 18 4 35 10 38 13 8 232 -29 385 -65 136 -32 244 -53 394 -75 58
-9 110 -20 116 -25 7 -6 24 -6 45 0 28 8 177 -3 188 -15 1 -1 -26 -5 -60 -9
-78 -9 -108 -27 -108 -65 0 -55 82 -111 164 -111 69 0 156 71 140 114 -3 8
-23 23 -45 33 -45 21 -51 37 -11 29 36 -8 433 -32 922 -56 437 -22 552 -36
763 -93 192 -52 165 -63 -193 -75 -140 -5 -263 -5 -272 0 -10 5 -268 6 -575 4
-704 -5 -633 -3 -633 -25 0 -27 -79 -43 -154 -31 -51 8 -115 40 -116 58 -1 4
-16 24 -34 45 l-33 37 -24 -19 c-18 -14 -30 -16 -49 -9 -17 6 -21 11 -12 17
16 10 -33 25 -153 47 -83 15 -395 84 -541 119 -33 8 -71 14 -85 13 -27 -1
-122 17 -189 37 -220 66 -339 109 -369 134 -45 37 -35 55 28 47 25 -3 129 -13
231 -21z m2125 -25 c15 -16 16 -22 5 -35 -17 -21 -54 -15 -58 8 -9 46 22 62
53 27z m-1347 -32 c22 -22 14 -48 -13 -48 -21 0 -25 5 -25 30 0 31 17 39 38
18z m383 -35 c8 -42 -3 -57 -35 -49 -30 7 -33 28 -8 61 22 31 35 27 43 -12z
m949 -28 c0 -8 -4 -15 -10 -15 -5 0 -10 7 -10 15 0 8 5 15 10 15 6 0 10 -7 10
-15z m-1735 -155 c8 -25 -10 -50 -36 -50 -22 0 -25 21 -7 50 16 26 35 25 43 0z
m147 -46 c11 -22 10 -28 -7 -40 -24 -18 -34 -18 -41 1 -9 23 5 65 21 65 9 0
21 -12 27 -26z m-6032 -79 c3 -30 3 -52 -1 -48 -4 5 -10 33 -14 63 -3 30 -3
51 1 47 5 -4 11 -32 14 -62z m3566 35 c5 -5 7 -33 4 -62 -4 -46 -8 -52 -33
-61 -22 -7 -33 -6 -43 5 -15 14 -13 21 21 116 5 14 37 16 51 2z m-3875 -47
c-12 -20 -14 -14 -5 12 4 9 9 14 11 11 3 -2 0 -13 -6 -23z m2747 -11 c2 -7 -3
-12 -12 -12 -9 0 -16 7 -16 16 0 17 22 14 28 -4z m1262 -66 c5 -13 12 -40 15
-59 7 -34 5 -37 -21 -43 -16 -4 -35 -11 -42 -17 -7 -6 -12 -6 -11 -1 1 5 -1
17 -6 27 -8 20 31 117 47 117 5 0 13 -11 18 -24z m630 -25 c5 -11 10 -31 10
-45 0 -22 -5 -26 -29 -26 -35 0 -47 24 -32 64 12 31 36 34 51 7z m-1022 -16
c12 -27 1 -75 -18 -75 -20 0 -34 48 -22 75 15 32 26 32 40 0z m-310 -19 c3
-20 0 -27 -10 -24 -7 3 -14 17 -16 32 -3 20 0 27 10 24 7 -3 14 -17 16 -32z
m5002 19 c0 -8 -9 -15 -20 -15 -20 0 -26 11 -13 23 12 13 33 7 33 -8z m-312
-67 c2 -20 -4 -31 -23 -44 -37 -24 -51 -8 -35 41 9 28 16 35 33 33 15 -2 23
-11 25 -30z m-4284 6 c9 -25 7 -34 -8 -34 -19 0 -29 17 -22 35 7 20 22 19 30
-1z m164 -21 c-2 -10 -10 -18 -18 -18 -8 0 -16 8 -18 18 -2 12 3 17 18 17 15
0 20 -5 18 -17z m-2349 -39 c-14 -18 -24 -11 -15 11 3 9 11 13 16 10 8 -5 7
-11 -1 -21z m2589 -57 c4 -20 -25 -34 -40 -19 -15 15 -1 44 19 40 10 -2 19
-11 21 -21z m4076 -34 c8 -19 -9 -33 -41 -33 -25 0 -30 19 -11 38 17 17 45 15
52 -5z m216 -22 c0 -10 -7 -24 -16 -31 -12 -11 -18 -10 -31 3 -21 21 -9 47 22
47 18 0 25 -5 25 -19z m-2362 -77 c26 -7 30 -45 6 -68 -25 -25 -54 -4 -54 39
0 36 6 40 48 29z m2515 -10 c-4 -11 -9 -12 -19 -3 -18 15 -18 14 5 16 14 1 18
-3 14 -13z m-302 -15 c9 -17 8 -25 -4 -36 -19 -19 -37 -9 -37 21 0 40 23 49
41 15z m-2833 -26 c6 -19 -28 -29 -39 -12 -5 8 -9 18 -9 22 0 13 43 3 48 -10z
m85 -45 c13 -19 2 -48 -17 -48 -23 0 -40 38 -25 56 14 17 28 14 42 -8z m807
-22 c0 -26 -18 -46 -41 -46 -24 0 -32 16 -25 45 10 40 66 41 66 1z m2147 12
c-3 -8 -6 -5 -6 6 -1 11 2 17 5 13 3 -3 4 -12 1 -19z m-2192 -162 c10 -75 5
-89 -32 -100 -49 -14 -60 1 -53 74 6 64 17 80 57 80 19 0 22 -7 28 -54z m1701
-13 c-10 -10 -19 5 -10 18 6 11 8 11 12 0 2 -7 1 -15 -2 -18z m-1806 -109 c13
-32 13 -30 -6 -48 -36 -36 -61 4 -34 55 15 26 29 24 40 -7z m788 -28 c3 -13
-1 -17 -14 -14 -11 2 -20 11 -22 22 -3 13 1 17 14 14 11 -2 20 -11 22 -22z
m-79 -45 c22 -17 23 -21 12 -47 -15 -36 -57 -68 -78 -60 -18 7 -11 67 13 104
17 27 22 27 53 3z m-643 -15 c8 -21 -15 -58 -34 -54 -18 3 -27 30 -18 54 7 18
45 18 52 0z m1772 -48 c7 -7 12 -19 12 -28 0 -23 -36 -54 -55 -47 -21 9 -20
63 3 76 22 13 26 13 40 -1z m-1100 -61 c2 -10 -4 -20 -13 -23 -21 -9 -28 0
-20 26 8 24 28 22 33 -3z m1870 -9 c2 -9 -6 -22 -19 -28 -17 -10 -24 -9 -37 4
-13 12 -13 18 -2 31 17 20 54 16 58 -7z m-600 -75 c4 -39 -23 -58 -62 -43 -32
12 -33 27 -4 57 31 33 62 27 66 -14z m-2740 -65 c2 -26 -2 -37 -13 -42 -34
-13 -44 13 -23 59 15 34 32 26 36 -17z m2964 -142 c15 -35 5 -55 -25 -49 -20
4 -26 0 -29 -16 -5 -37 -23 -28 -26 12 -6 66 55 106 80 53z m-294 -32 c12 -21
3 -56 -12 -51 -14 5 -21 67 -7 67 5 0 14 -7 19 -16z m-2678 -94 c0 -16 -7 -20
-30 -20 -22 0 -30 5 -30 18 0 10 5 23 12 30 16 16 48 -3 48 -28z m2931 -40
c24 -13 26 -66 2 -92 -19 -21 -81 -25 -89 -5 -3 8 4 35 15 60 21 48 36 56 72
37z m-138 -66 c9 -9 -4 -35 -14 -28 -5 3 -9 12 -9 20 0 14 12 19 23 8z m257
-123 c0 -54 -3 -70 -16 -75 -18 -7 -44 10 -44 29 0 21 42 115 51 115 5 0 9
-31 9 -69z m105 46 c0 -26 -20 -25 -23 2 -3 16 1 22 10 19 7 -3 13 -12 13 -21z
m-347 -46 c3 -16 -1 -22 -10 -19 -7 3 -15 15 -16 27 -3 16 1 22 10 19 7 -3 15
-15 16 -27z m-4478 -117 c0 -24 -19 -54 -35 -54 -15 0 -20 26 -9 54 8 21 44
21 44 0z m330 -164 c0 -31 -16 -41 -26 -15 -8 19 2 45 16 45 5 0 10 -13 10
-30z m744 24 c21 -8 20 -18 -9 -81 -24 -50 -46 -66 -60 -42 -11 17 4 75 26
103 23 29 21 28 43 20z m1890 -70 c19 -18 21 -55 4 -72 -16 -16 -67 -15 -74 2
-8 20 23 86 40 86 8 0 22 -7 30 -16z m-2964 -70 c13 -33 2 -56 -24 -52 -25 4
-35 51 -16 73 15 18 28 11 40 -21z m333 -40 c2 -27 0 -29 -40 -32 -53 -4 -57
14 -12 53 35 29 49 24 52 -21z m2720 40 c11 -11 -5 -34 -24 -34 -18 0 -26 20
-12 33 8 9 28 9 36 1z m-1513 -19 c7 -9 9 -26 5 -45 -5 -24 -12 -30 -31 -30
-33 0 -64 17 -64 35 0 16 46 55 65 55 7 0 18 -7 25 -15z m178 -69 c5 -23 -23
-47 -44 -39 -30 11 -7 67 26 61 8 -2 16 -12 18 -22z m-754 -2 c10 -27 7 -44
-9 -44 -18 0 -30 24 -21 45 7 20 22 19 30 -1z m1981 -84 c0 -29 -32 -41 -41
-16 -9 24 4 48 23 44 12 -2 18 -12 18 -28z m-1917 -4 c3 -13 -1 -17 -14 -14
-11 2 -20 11 -22 22 -3 13 1 17 14 14 11 -2 20 -11 22 -22z m440 7 c-4 -22
-22 -20 -26 1 -2 10 3 16 13 16 10 0 15 -7 13 -17z m2002 -3 c9 -16 8 -22 -5
-26 -21 -8 -39 10 -32 30 9 22 24 20 37 -4z m576 -36 c4 -17 1 -31 -9 -41 -18
-18 -37 -9 -37 17 0 51 35 69 46 24z"/>
<path d="M18390 9965 c0 -8 2 -15 4 -15 2 0 6 7 10 15 3 8 1 15 -4 15 -6 0
-10 -7 -10 -15z"/>
<path d="M16338 9943 c7 -3 16 -2 19 1 4 3 -2 6 -13 5 -11 0 -14 -3 -6 -6z"/>
<path d="M16340 9920 c0 -5 7 -10 16 -10 8 0 12 5 9 10 -3 6 -10 10 -16 10 -5
0 -9 -4 -9 -10z"/>
<path d="M18236 9902 c-3 -5 1 -9 9 -9 8 0 15 4 15 9 0 4 -4 8 -9 8 -6 0 -12
-4 -15 -8z"/>
<path d="M18560 9889 c0 -14 7 -19 30 -19 17 0 30 2 30 4 0 3 -13 11 -30 20
-28 14 -30 13 -30 -5z"/>
<path d="M18296 9881 c-4 -7 -5 -15 -2 -18 9 -9 19 4 14 18 -4 11 -6 11 -12 0z"/>
<path d="M18320 9869 c0 -9 7 -19 15 -23 8 -3 12 -12 9 -21 -3 -8 -1 -15 5
-15 6 0 11 6 11 14 0 8 6 17 13 19 9 4 9 8 -3 16 -8 5 -18 7 -23 4 -5 -3 -13
1 -18 8 -7 11 -9 11 -9 -2z"/>
<path d="M16090 9859 c0 -5 5 -7 10 -4 6 3 10 8 10 11 0 2 -4 4 -10 4 -5 0
-10 -5 -10 -11z"/>
<path d="M18631 9861 c-8 -5 -9 -11 -3 -15 5 -3 12 1 16 9 6 17 6 18 -13 6z"/>
<path d="M18390 9840 c0 -11 -4 -20 -10 -20 -5 0 -7 -7 -4 -15 10 -25 19 -17
21 20 2 19 1 35 -2 35 -3 0 -5 -9 -5 -20z"/>
<path d="M18417 9843 c-2 -5 -3 -24 -2 -43 2 -45 29 -53 42 -13 8 22 6 32 -7
46 -18 19 -27 21 -33 10z"/>
<path d="M18560 9840 c0 -5 9 -10 21 -10 11 0 17 5 14 10 -3 6 -13 10 -21 10
-8 0 -14 -4 -14 -10z"/>
<path d="M18005 9830 c-3 -5 1 -10 10 -10 9 0 13 5 10 10 -3 6 -8 10 -10 10
-2 0 -7 -4 -10 -10z"/>
<path d="M18480 9800 c0 -19 3 -21 12 -12 9 9 9 15 0 24 -9 9 -12 7 -12 -12z"/>
<path d="M18522 9788 c3 -29 0 -33 -27 -39 -16 -4 -24 -7 -17 -8 7 -1 12 -16
12 -41 0 -37 2 -40 28 -41 26 -2 26 -2 2 -6 -46 -8 -45 -22 3 -21 37 0 44 3
39 16 -4 12 -1 14 12 9 10 -4 24 -7 32 -7 8 0 14 -4 14 -10 0 -5 -9 -10 -20
-10 -11 0 -20 -4 -20 -10 0 -14 37 -12 47 3 4 6 8 22 8 34 1 16 -2 19 -11 12
-8 -7 -17 -5 -28 6 -20 20 -21 45 -2 45 8 0 16 7 20 15 3 10 -1 15 -13 15 -19
0 -61 39 -61 58 0 7 -5 12 -11 12 -6 0 -9 -14 -7 -32z m4 -96 c-12 -11 -18 7
-10 30 l8 23 4 -23 c2 -13 1 -26 -2 -30z m40 22 c-12 -26 -15 -25 -21 4 -2 15
1 20 14 19 14 -1 15 -5 7 -23z"/>
<path d="M18325 9780 c3 -5 8 -10 11 -10 2 0 4 5 4 10 0 6 -5 10 -11 10 -5 0
-7 -4 -4 -10z"/>
<path d="M18670 9750 c0 -5 5 -10 10 -10 6 0 10 5 10 10 0 6 -4 10 -10 10 -5
0 -10 -4 -10 -10z"/>
<path d="M18158 9738 c5 -5 16 -8 23 -6 8 3 3 7 -10 11 -17 4 -21 3 -13 -5z"/>
<path d="M18410 9729 c0 -5 5 -7 10 -4 6 3 10 8 10 11 0 2 -4 4 -10 4 -5 0
-10 -5 -10 -11z"/>
<path d="M18445 9730 c3 -5 8 -10 11 -10 2 0 4 5 4 10 0 6 -5 10 -11 10 -5 0
-7 -4 -4 -10z"/>
<path d="M18452 9690 c0 -14 2 -19 5 -12 2 6 2 18 0 25 -3 6 -5 1 -5 -13z"/>
<path d="M18408 9677 c-3 -19 -2 -25 4 -19 6 6 8 18 6 28 -3 14 -5 12 -10 -9z"/>
<path d="M18471 9664 c0 -11 3 -14 6 -6 3 7 2 16 -1 19 -3 4 -6 -2 -5 -13z"/>
<path d="M18687 9643 c-39 -30 -46 -47 -22 -57 8 -3 15 -13 15 -23 1 -16 2
-16 12 1 8 15 8 21 0 24 -15 5 -16 32 -2 32 6 0 10 7 10 15 0 8 7 15 15 15 8
0 15 5 15 10 0 14 -3 13 -43 -17z"/>
<path d="M17111 9624 c0 -11 3 -14 6 -6 3 7 2 16 -1 19 -3 4 -6 -2 -5 -13z"/>
<path d="M18450 9631 c0 -5 5 -13 10 -16 6 -3 10 -2 10 4 0 5 -4 13 -10 16 -5
3 -10 2 -10 -4z"/>
<path d="M18730 9626 c0 -9 5 -16 10 -16 6 0 10 4 10 9 0 6 -4 13 -10 16 -5 3
-10 -1 -10 -9z"/>
<path d="M18770 9620 c0 -5 5 -10 10 -10 6 0 10 5 10 10 0 6 -4 10 -10 10 -5
0 -10 -4 -10 -10z"/>
<path d="M18423 9603 c9 -9 20 -13 24 -9 4 4 1 11 -7 16 -25 16 -35 11 -17 -7z"/>
<path d="M18479 9602 c-1 -4 -2 -21 -4 -39 -3 -31 -1 -32 29 -27 29 5 30 5 12
-10 -24 -20 -15 -32 12 -17 11 6 27 8 35 5 9 -3 21 8 35 34 l21 40 -22 7 c-34
10 -117 16 -118 7z m52 -19 c-11 -5 -11 -7 0 -14 23 -14 3 -20 -25 -8 -35 16
-33 26 7 26 17 1 26 -2 18 -4z"/>
<path d="M17140 9590 c0 -5 5 -10 10 -10 6 0 10 5 10 10 0 6 -4 10 -10 10 -5
0 -10 -4 -10 -10z"/>
<path d="M18231 9574 c0 -11 3 -14 6 -6 3 7 2 16 -1 19 -3 4 -6 -2 -5 -13z"/>
<path d="M18407 9561 c-3 -12 -2 -23 3 -26 11 -7 20 19 10 34 -5 9 -9 7 -13
-8z"/>
<path d="M18435 9571 c-6 -11 9 -23 19 -14 9 9 7 23 -3 23 -6 0 -12 -4 -16 -9z"/>
<path d="M16971 9534 c-26 -20 -37 -34 -27 -34 9 0 16 5 16 11 0 6 6 9 14 6
13 -5 53 39 44 48 -2 1 -23 -12 -47 -31z"/>
<path d="M18645 9561 c-3 -5 -1 -12 5 -16 5 -3 10 1 10 9 0 18 -6 21 -15 7z"/>
<path d="M16938 9553 c7 -3 16 -2 19 1 4 3 -2 6 -13 5 -11 0 -14 -3 -6 -6z"/>
<path d="M17215 9549 c-10 -15 3 -25 16 -12 7 7 7 13 1 17 -6 3 -14 1 -17 -5z"/>
<path d="M18200 9520 c0 -5 4 -10 9 -10 6 0 13 5 16 10 3 6 -1 10 -9 10 -9 0
-16 -4 -16 -10z"/>
<path d="M16490 9510 c-20 -12 -10 -19 14 -10 11 3 15 9 10 13 -6 3 -16 2 -24
-3z"/>
<path d="M18590 9510 c0 -5 7 -10 16 -10 8 0 12 5 9 10 -3 6 -10 10 -16 10 -5
0 -9 -4 -9 -10z"/>
<path d="M18650 9510 c0 -5 5 -10 11 -10 5 0 7 5 4 10 -3 6 -8 10 -11 10 -2 0
-4 -4 -4 -10z"/>
<path d="M18815 9510 c-3 -5 1 -10 10 -10 9 0 13 5 10 10 -3 6 -8 10 -10 10
-2 0 -7 -4 -10 -10z"/>
<path d="M16634 9495 c6 -7 13 -9 16 -5 3 4 12 9 20 12 8 3 1 6 -16 5 -25 0
-29 -3 -20 -12z"/>
<path d="M17968 9503 c6 -2 18 -2 25 0 6 3 1 5 -13 5 -14 0 -19 -2 -12 -5z"/>
<path d="M18046 9482 c-4 -13 -5 -26 -2 -29 10 -11 18 4 14 29 l-4 23 -8 -23z"/>
<path d="M18540 9496 c0 -2 7 -6 15 -10 8 -3 15 -1 15 4 0 6 -7 10 -15 10 -8
0 -15 -2 -15 -4z"/>
<path d="M16930 9483 c0 -1 8 -7 18 -12 12 -6 25 -5 42 4 24 13 23 14 -17 12
-24 -1 -43 -2 -43 -4z"/>
<path d="M18495 9480 c3 -5 10 -10 16 -10 5 0 9 5 9 10 0 6 -7 10 -16 10 -8 0
-12 -4 -9 -10z"/>
<path d="M16620 9464 c0 -8 5 -12 10 -9 6 4 8 11 5 16 -9 14 -15 11 -15 -7z"/>
<path d="M16840 9470 c0 -5 5 -10 10 -10 6 0 10 5 10 10 0 6 -4 10 -10 10 -5
0 -10 -4 -10 -10z"/>
<path d="M17406 9455 c-3 -8 -1 -15 4 -15 6 0 10 7 10 15 0 8 -2 15 -4 15 -2
0 -6 -7 -10 -15z"/>
<path d="M17480 9461 c0 -6 5 -13 10 -16 6 -3 10 1 10 9 0 9 -4 16 -10 16 -5
0 -10 -4 -10 -9z"/>
<path d="M17880 9445 c0 -8 5 -15 10 -15 6 0 10 7 10 15 0 8 -4 15 -10 15 -5
0 -10 -7 -10 -15z"/>
<path d="M17843 9414 c-3 -8 -2 -18 2 -22 4 -4 10 -1 12 6 3 6 13 12 23 12 10
0 20 -6 23 -12 2 -7 8 -10 12 -5 11 10 3 16 -34 27 -25 7 -33 6 -38 -6z"/>
<path d="M17718 9378 c9 -9 15 -9 24 0 9 9 7 12 -12 12 -19 0 -21 -3 -12 -12z"/>
<path d="M4510 8820 c0 -5 5 -10 10 -10 19 0 10 -21 -15 -32 -29 -13 -31 -23
-10 -45 19 -19 17 -93 -3 -100 -19 -8 5 -23 36 -23 14 0 26 -8 32 -22 7 -19 9
-20 9 -4 1 15 7 17 36 14 38 -4 50 16 15 25 -11 3 -20 9 -19 14 4 21 -2 33
-16 33 -10 0 -15 -10 -15 -26 0 -22 -2 -25 -15 -14 -17 14 -21 35 -5 25 6 -3
10 4 10 16 0 19 -2 20 -17 8 -15 -13 -16 -11 -9 16 4 17 16 37 27 45 17 14 18
17 4 37 -8 12 -12 28 -9 37 5 12 0 16 -20 16 -14 0 -26 -4 -26 -10z"/>
<path d="M4403 8736 c-18 -6 -33 -14 -33 -18 0 -10 62 0 73 11 14 14 -6 17
-40 7z"/>
<path d="M4760 8735 c0 -8 4 -15 10 -15 5 0 7 7 4 15 -4 8 -8 15 -10 15 -2 0
-4 -7 -4 -15z"/>
<path d="M4731 8724 c0 -11 3 -14 6 -6 3 7 2 16 -1 19 -3 4 -6 -2 -5 -13z"/>
<path d="M4454 8704 c4 -12 1 -14 -14 -9 -14 5 -20 2 -20 -10 0 -9 7 -15 17
-13 11 2 19 -6 24 -22 4 -16 7 -19 8 -7 1 9 8 17 16 17 19 0 20 19 1 26 -8 3
-12 12 -9 20 3 9 -1 14 -12 14 -11 0 -15 -5 -11 -16z"/>
<path d="M4320 8706 c0 -2 7 -9 15 -16 9 -7 15 -8 15 -2 0 5 -7 12 -15 16 -8
3 -15 4 -15 2z"/>
<path d="M4370 8691 c0 -5 7 -14 15 -21 16 -14 18 -10 9 14 -6 17 -24 22 -24
7z"/>
<path d="M4321 8654 c0 -11 3 -14 6 -6 3 7 2 16 -1 19 -3 4 -6 -2 -5 -13z"/>
<path d="M4420 8640 c0 -5 5 -10 11 -10 5 0 7 5 4 10 -3 6 -8 10 -11 10 -2 0
-4 -4 -4 -10z"/>
<path d="M4813 8643 c9 -2 25 -2 35 0 9 3 1 5 -18 5 -19 0 -27 -2 -17 -5z"/>
<path d="M4385 8630 c-3 -5 -1 -10 4 -10 6 0 11 5 11 10 0 6 -2 10 -4 10 -3 0
-8 -4 -11 -10z"/>
<path d="M4580 8543 c-13 -15 -12 -16 4 -10 12 5 24 0 37 -15 10 -13 18 -18
19 -12 0 11 -33 54 -41 54 -2 -1 -11 -8 -19 -17z"/>
<path d="M4121 8536 c-1 -12 -6 -16 -16 -12 -8 3 -15 1 -15 -3 0 -5 7 -12 15
-15 17 -6 30 15 22 36 -3 8 -6 6 -6 -6z"/>
<path d="M5250 8541 c0 -6 5 -13 10 -16 6 -3 10 1 10 9 0 9 -4 16 -10 16 -5 0
-10 -4 -10 -9z"/>
<path d="M5210 8521 c0 -6 5 -13 10 -16 6 -3 10 1 10 9 0 9 -4 16 -10 16 -5 0
-10 -4 -10 -9z"/>
<path d="M4350 8490 c0 -5 5 -10 11 -10 5 0 7 5 4 10 -3 6 -8 10 -11 10 -2 0
-4 -4 -4 -10z"/>
<path d="M4470 8450 c-10 -24 -10 -33 0 -45 11 -13 7 -15 -23 -15 -24 0 -40 6
-46 18 -9 15 -10 15 -11 -5 0 -19 5 -23 34 -23 23 0 36 -6 41 -17 7 -17 8 -16
15 2 5 11 9 14 9 8 1 -18 21 -16 21 1 0 8 -6 16 -14 19 -16 6 -19 67 -4 67 4
0 8 5 8 10 0 21 -18 9 -30 -20z"/>
<path d="M5240 8470 c0 -5 5 -10 11 -10 5 0 7 5 4 10 -3 6 -8 10 -11 10 -2 0
-4 -4 -4 -10z"/>
<path d="M4318 8463 c7 -3 16 -2 19 1 4 3 -2 6 -13 5 -11 0 -14 -3 -6 -6z"/>
<path d="M4415 8450 c-4 -6 -3 -16 3 -22 13 -13 23 4 13 21 -7 10 -10 10 -16
1z"/>
<path d="M4560 8442 c0 -12 -4 -22 -10 -22 -5 0 -10 -9 -10 -20 0 -11 5 -20
10 -20 6 0 10 8 10 18 0 10 5 23 12 30 9 9 9 15 0 24 -9 9 -12 7 -12 -10z"/>
<path d="M4817 8423 c-4 -3 -7 -11 -7 -17 0 -6 5 -5 12 2 6 6 9 14 7 17 -3 3
-9 2 -12 -2z"/>
<path d="M4580 8368 c0 -19 2 -20 10 -8 13 19 13 30 0 30 -5 0 -10 -10 -10
-22z"/>
<path d="M5437 8373 c3 -7 6 -13 8 -13 2 0 5 6 8 13 3 8 -1 14 -8 14 -7 0 -11
-6 -8 -14z"/>
<path d="M3870 8369 c0 -5 5 -7 10 -4 6 3 10 8 10 11 0 2 -4 4 -10 4 -5 0 -10
-5 -10 -11z"/>
<path d="M4670 8369 c0 -5 5 -7 10 -4 6 3 10 8 10 11 0 2 -4 4 -10 4 -5 0 -10
-5 -10 -11z"/>
<path d="M4537 8363 c-4 -3 -7 -11 -7 -17 0 -6 5 -5 12 2 6 6 9 14 7 17 -3 3
-9 2 -12 -2z"/>
<path d="M4338 8333 c-19 -5 -25 -23 -8 -23 6 0 10 -9 10 -20 0 -11 7 -20 15
-20 8 0 15 -4 15 -10 0 -5 -7 -10 -16 -10 -12 0 -15 -6 -10 -22 3 -13 6 -29 6
-35 0 -18 20 -16 27 3 3 9 0 20 -8 25 -10 6 -10 9 -1 9 7 0 12 13 12 30 0 22
-5 30 -17 30 -15 0 -16 2 -3 10 20 13 43 13 35 0 -3 -5 1 -10 11 -10 14 0 15
2 3 18 -26 32 -34 35 -71 25z"/>
<path d="M4491 8314 c0 -11 3 -14 6 -6 3 7 2 16 -1 19 -3 4 -6 -2 -5 -13z"/>
<path d="M4690 8319 c0 -5 5 -7 10 -4 6 3 10 8 10 11 0 2 -4 4 -10 4 -5 0 -10
-5 -10 -11z"/>
<path d="M4530 8305 c0 -8 4 -15 10 -15 5 0 7 7 4 15 -4 8 -8 15 -10 15 -2 0
-4 -7 -4 -15z"/>
<path d="M3737 8303 c-12 -12 -7 -33 7 -33 9 0 14 9 13 20 -1 20 -9 25 -20 13z"/>
<path d="M3695 8280 c-3 -5 -1 -10 4 -10 6 0 11 5 11 10 0 6 -2 10 -4 10 -3 0
-8 -4 -11 -10z"/>
<path d="M4390 8260 c0 -5 5 -10 10 -10 6 0 10 5 10 10 0 6 -4 10 -10 10 -5 0
-10 -4 -10 -10z"/>
<path d="M4430 8260 c0 -5 5 -10 10 -10 6 0 10 5 10 10 0 6 -4 10 -10 10 -5 0
-10 -4 -10 -10z"/>
<path d="M4410 8230 c0 -5 5 -10 10 -10 6 0 10 5 10 10 0 6 -4 10 -10 10 -5 0
-10 -4 -10 -10z"/>
<path d="M4450 8230 c0 -5 5 -10 10 -10 6 0 10 5 10 10 0 6 -4 10 -10 10 -5 0
-10 -4 -10 -10z"/>
<path d="M4465 8200 c-3 -5 -1 -10 4 -10 6 0 11 5 11 10 0 6 -2 10 -4 10 -3 0
-8 -4 -11 -10z"/>
<path d="M4540 8199 c0 -5 14 -9 32 -9 36 0 31 12 -7 16 -14 1 -25 -2 -25 -7z"/>
<path d="M4260 8165 c0 -18 5 -25 20 -25 22 0 26 20 8 38 -19 19 -28 14 -28
-13z"/>
<path d="M4421 8154 c0 -11 3 -14 6 -6 3 7 2 16 -1 19 -3 4 -6 -2 -5 -13z"/>
<path d="M4386 8151 c-4 -6 -1 -11 6 -12 7 0 0 -7 -17 -14 -26 -12 -27 -14 -8
-15 12 0 27 -9 33 -19 14 -27 13 -31 -7 -24 -12 3 -10 -1 5 -12 31 -22 47 -8
33 28 -6 15 -15 27 -21 27 -6 0 -8 4 -5 10 3 5 2 17 -3 26 -6 11 -11 13 -16 5z"/>
<path d="M4506 8125 c-11 -8 -16 -15 -10 -15 5 0 18 7 28 15 11 8 16 15 10 15
-5 0 -18 -7 -28 -15z"/>
<path d="M4450 8046 c0 -9 5 -16 10 -16 6 0 10 4 10 9 0 6 -4 13 -10 16 -5 3
-10 -1 -10 -9z"/>
<path d="M2575 8470 c-3 -5 1 -10 10 -10 9 0 13 5 10 10 -3 6 -8 10 -10 10 -2
0 -7 -4 -10 -10z"/>
<path d="M2795 8460 c4 -6 11 -8 16 -5 14 9 11 15 -7 15 -8 0 -12 -5 -9 -10z"/>
<path d="M2856 8420 c-11 -3 -15 -9 -10 -13 10 -6 42 9 34 16 -3 3 -14 1 -24
-3z"/>
<path d="M2560 8282 c0 -5 7 -9 15 -9 8 0 12 4 9 9 -3 4 -9 8 -15 8 -5 0 -9
-4 -9 -8z"/>
<path d="M2418 8132 c-30 -6 -20 -19 12 -14 17 2 30 6 30 7 0 6 -26 11 -42 7z"/>
<path d="M2370 8120 c0 -5 5 -10 10 -10 6 0 10 5 10 10 0 6 -4 10 -10 10 -5 0
-10 -4 -10 -10z"/>
<path d="M2216 8008 c-12 -14 -15 -23 -8 -26 8 -2 8 -11 1 -30 -13 -34 -3 -76
16 -68 8 3 15 1 15 -4 0 -6 7 -10 15 -10 8 0 15 5 15 10 0 6 -7 10 -15 10 -9
0 -15 9 -16 23 0 21 -1 21 -9 2 -5 -14 -7 -3 -6 32 1 41 5 53 20 57 10 2 15 9
11 15 -9 16 -18 14 -39 -11z"/>
<path d="M1995 8010 c3 -5 8 -10 11 -10 2 0 4 5 4 10 0 6 -5 10 -11 10 -5 0
-7 -4 -4 -10z"/>
<path d="M2140 7991 c0 -5 -3 -16 -6 -25 -3 -9 -1 -16 5 -16 6 0 11 8 12 18 0
14 2 14 9 -3 10 -23 13 -5 4 19 -7 17 -24 22 -24 7z"/>
<path d="M2077 7984 c-3 -3 -3 -12 0 -20 7 -19 43 -18 43 2 0 10 -5 14 -16 10
-8 -3 -12 -2 -9 4 7 11 -8 14 -18 4z"/>
<path d="M2180 7966 c0 -8 5 -18 10 -21 6 -3 10 3 10 14 0 12 -4 21 -10 21 -5
0 -10 -6 -10 -14z"/>
<path d="M2120 7916 c0 -9 9 -14 20 -13 11 1 20 7 20 14 0 7 -9 13 -20 13 -11
0 -20 -6 -20 -14z"/>
<path d="M2170 7890 c0 -5 5 -10 10 -10 6 0 10 5 10 10 0 6 -4 10 -10 10 -5 0
-10 -4 -10 -10z"/>
<path d="M4110 8350 c0 -5 9 -10 20 -10 11 0 20 5 20 10 0 6 -9 10 -20 10 -11
0 -20 -4 -20 -10z"/>
<path d="M2608 8213 c7 -3 16 -2 19 1 4 3 -2 6 -13 5 -11 0 -14 -3 -6 -6z"/>
<path d="M3040 8111 c0 -10 7 -18 15 -18 8 0 15 6 15 13 0 6 -7 14 -15 18 -10
3 -15 -1 -15 -13z"/>
<path d="M3007 8094 c-14 -14 -7 -35 11 -32 9 2 17 10 17 17 0 16 -18 25 -28
15z"/>
<path d="M3055 8074 c-11 -8 -19 -24 -17 -34 2 -14 -2 -20 -14 -20 -10 0 -15
-3 -11 -6 3 -3 15 -3 27 1 15 5 19 12 15 25 -4 13 0 19 15 22 11 2 21 7 21 13
1 16 -15 15 -36 -1z"/>
<path d="M2968 8043 c7 -3 16 -2 19 1 4 3 -2 6 -13 5 -11 0 -14 -3 -6 -6z"/>
<path d="M3050 7984 c0 -8 5 -12 10 -9 6 3 10 10 10 16 0 5 -4 9 -10 9 -5 0
-10 -7 -10 -16z"/>
<path d="M3015 7980 c-3 -5 1 -10 9 -10 9 0 16 5 16 10 0 6 -4 10 -9 10 -6 0
-13 -4 -16 -10z"/>
<path d="M5875 7700 c3 -5 8 -10 11 -10 2 0 4 5 4 10 0 6 -5 10 -11 10 -5 0
-7 -4 -4 -10z"/>
<path d="M14428 7213 c6 -2 18 -2 25 0 6 3 1 5 -13 5 -14 0 -19 -2 -12 -5z"/>
<path d="M9140 3891 c0 -6 5 -13 10 -16 6 -3 10 1 10 9 0 9 -4 16 -10 16 -5 0
-10 -4 -10 -9z"/>
<path d="M9590 3839 c0 -22 4 -38 8 -35 8 5 4 76 -4 76 -2 0 -4 -18 -4 -41z"/>
<path d="M9155 3840 c3 -5 8 -10 11 -10 2 0 4 5 4 10 0 6 -5 10 -11 10 -5 0
-7 -4 -4 -10z"/>
<path d="M19135 10090 c3 -5 15 -10 26 -10 10 0 19 5 19 10 0 6 -12 10 -26 10
-14 0 -23 -4 -19 -10z"/>
<path d="M4464 4084 c3 -9 6 -18 6 -20 0 -3 4 -3 10 1 11 7 2 35 -12 35 -6 0
-7 -7 -4 -16z"/>
<path d="M4570 3515 c0 -8 5 -15 10 -15 6 0 10 7 10 15 0 8 -4 15 -10 15 -5 0
-10 -7 -10 -15z"/>
<path d="M1070 2466 c0 -9 5 -16 10 -16 6 0 10 4 10 9 0 6 -4 13 -10 16 -5 3
-10 -1 -10 -9z"/>
<path d="M1040 2419 c0 -6 -7 -9 -15 -5 -9 3 -15 0 -15 -10 0 -9 5 -13 13 -10
6 3 20 9 30 12 21 8 23 24 2 24 -8 0 -15 -5 -15 -11z"/>
<path d="M975 2380 c3 -5 8 -10 11 -10 2 0 4 5 4 10 0 6 -5 10 -11 10 -5 0 -7
-4 -4 -10z"/>
<path d="M740 2180 c0 -11 -4 -20 -9 -20 -5 0 -12 -12 -15 -27 -15 -83 -16
-103 -6 -103 5 0 10 7 10 15 0 8 6 15 13 15 7 0 21 16 31 35 18 34 18 36 1 55
-9 10 -15 26 -12 35 4 8 2 15 -3 15 -6 0 -10 -9 -10 -20z m20 -49 c0 -6 -4
-13 -10 -16 -5 -3 -10 1 -10 9 0 9 5 16 10 16 6 0 10 -4 10 -9z"/>
<path d="M2368 2168 c9 -9 15 -9 24 0 9 9 7 12 -12 12 -19 0 -21 -3 -12 -12z"/>
<path d="M670 1995 c0 -8 -4 -15 -10 -15 -5 0 -10 -4 -10 -10 0 -17 14 -10 33
15 15 22 16 25 2 25 -8 0 -15 -7 -15 -15z"/>
<path d="M17914 1970 c0 -11 6 -20 13 -20 11 0 11 5 3 20 -6 11 -12 20 -13 20
-2 0 -3 -9 -3 -20z"/>
<path d="M636 1946 c4 -11 0 -16 -10 -16 -9 0 -16 -7 -16 -15 0 -8 5 -15 10
-15 6 0 10 5 10 11 0 5 5 7 10 4 6 -3 10 3 10 14 0 11 -4 23 -10 26 -6 3 -7
-1 -4 -9z"/>
<path d="M600 1865 c0 -8 5 -15 10 -15 6 0 10 7 10 15 0 8 -4 15 -10 15 -5 0
-10 -7 -10 -15z"/>
<path d="M580 1809 c0 -6 -7 -9 -15 -6 -8 4 -17 2 -20 -3 -4 -6 6 -15 21 -20
30 -12 56 2 47 26 -6 16 -33 19 -33 3z"/>
<path d="M1803 1743 c9 -2 23 -2 30 0 6 3 -1 5 -18 5 -16 0 -22 -2 -12 -5z"/>
<path d="M1801 1704 c0 -11 3 -14 6 -6 3 7 2 16 -1 19 -3 4 -6 -2 -5 -13z"/>
<path d="M1786 1665 c-3 -8 -1 -15 4 -15 6 0 10 7 10 15 0 8 -2 15 -4 15 -2 0
-6 -7 -10 -15z"/>
<path d="M3495 1626 c-11 -8 -14 -15 -8 -19 6 -4 16 0 23 8 17 21 8 28 -15 11z"/>
<path d="M6295 1390 c-3 -5 -1 -10 4 -10 6 0 11 5 11 10 0 6 -2 10 -4 10 -3 0
-8 -4 -11 -10z"/>
<path d="M8780 1141 c23 -13 107 -25 95 -13 -5 5 -32 12 -60 15 -30 4 -44 3
-35 -2z"/>
<path d="M8910 1131 c0 -15 73 -27 255 -40 113 -9 503 -25 545 -24 8 1 88 2
177 2 89 1 165 6 167 10 7 11 -133 20 -304 21 -74 0 -169 2 -210 5 -41 2 -174
7 -295 11 -270 8 -284 9 -312 18 -14 4 -23 3 -23 -3z"/>
<path d="M10080 1080 c0 -5 5 -10 10 -10 6 0 10 5 10 10 0 6 -4 10 -10 10 -5
0 -10 -4 -10 -10z"/>
<path d="M650 320 c0 -13 11 -13 30 0 12 8 11 10 -7 10 -13 0 -23 -4 -23 -10z"/>
<path d="M315 130 c-3 -5 -1 -10 4 -10 6 0 11 5 11 10 0 6 -2 10 -4 10 -3 0
-8 -4 -11 -10z"/>
</g>
</svg>
